<svg width="196" height="260" viewBox="0 0 196 260" fill="none" xmlns="http://www.w3.org/2000/svg">
<path d="M175.072 9C175.072 11.2091 176.863 13 179.072 13H184.365C186.574 13 188.365 14.7909 188.365 17V57.5C188.365 59.7091 186.574 61.5 184.365 61.5H179.456C176.238 61.5 174.337 65.1067 176.156 67.7612L192.074 90.9888C193.893 93.6433 191.993 97.25 188.775 97.25H181.365C179.156 97.25 177.365 99.0409 177.365 101.25V106.811C177.365 107.891 177.802 108.925 178.576 109.678L194.41 125.084C195.325 125.974 195.766 127.248 195.556 128.507C190.485 158.911 168.149 186.471 136.486 199.149C134.285 200.03 133.211 202.573 134.22 204.719L143.313 224.047C144.561 226.7 142.626 229.75 139.694 229.75H133.365C131.156 229.75 129.365 231.541 129.365 233.75V234.5C129.365 236.709 127.574 238.5 125.365 238.5H104.4C103.492 238.5 102.693 239.102 102.444 239.976C102.392 240.158 102.365 240.346 102.365 240.535V241.462C102.365 241.814 102.457 242.161 102.632 242.467L104.361 245.492C104.363 245.495 104.36 245.5 104.356 245.5C104.351 245.5 104.348 245.506 104.351 245.509C105.607 246.99 106.365 248.906 106.365 251C106.365 255.694 102.56 259.5 97.8652 259.5C93.1708 259.5 89.3652 255.694 89.3652 251C89.3652 248.788 90.2112 246.774 91.5965 245.262C91.9957 244.826 92.3571 244.351 92.59 243.808L93.0415 242.755C93.2551 242.257 93.3652 241.721 93.3652 241.179V240.535C93.3652 240.346 93.3389 240.158 93.2869 239.976C93.0373 239.102 92.2388 238.5 91.3302 238.5H71.3652C69.1561 238.5 67.3652 236.709 67.3652 234.5V233.75C67.3652 231.541 65.5744 229.75 63.3652 229.75H57.0356C54.1037 229.75 52.1681 226.7 53.4161 224.047L62.2663 205.234C63.286 203.066 62.1788 200.499 59.9426 199.64C28.294 187.475 6.24023 160.366 0.19577 128.35C-0.0249347 127.181 0.31435 125.978 1.09064 125.077L14.3963 109.625C15.0214 108.899 15.3652 107.973 15.3652 107.015V101.25C15.3652 99.0409 13.5744 97.25 11.3652 97.25H4.0074C0.779202 97.25 -1.11921 93.623 0.720562 90.9704L16.8048 67.7796C18.6446 65.127 16.7462 61.5 13.518 61.5H9.36523C7.1561 61.5 5.36523 59.7091 5.36523 57.5V17C5.36523 14.7909 7.1561 13 9.36523 13H14.665C16.8742 13 18.665 11.2091 18.665 9V4C18.665 1.79086 20.4559 0 22.665 0H171.072C173.281 0 175.072 1.79086 175.072 4V9Z" fill="#00437C"/>
</svg>
