<svg width="703" height="339" viewBox="0 0 703 339" fill="none" xmlns="http://www.w3.org/2000/svg">
<path d="M651.935 305.946C651.935 303.897 651.798 296.694 651.728 295.05C651.561 291.722 651.379 291.454 651.379 291.454C651.798 291.313 652.415 291.176 653.138 291.176C653.861 291.176 654.584 291.242 654.927 291.758C655.847 293.128 657.116 294.808 658.557 296.527L665.229 304.545C666.978 306.669 668.318 308.389 668.657 309.107L668.798 308.97C668.656 306.259 668.692 298.576 668.52 295.05C668.353 291.722 668.176 291.419 668.176 291.419C668.176 291.419 668.768 291.105 669.45 291.105C670.926 291.105 671.032 291.828 671.032 293.063C671.032 297.21 670.86 301.186 670.86 306.568C670.86 310.407 670.896 314.211 671.169 315.445C671.169 315.445 670.411 315.647 669.486 315.647C668.965 315.647 668.318 315.409 667.868 314.721C667.014 313.386 665.669 311.676 664.092 309.785L657.293 301.667C655.504 299.507 654.199 297.832 654.028 297.175L653.891 297.311C653.891 302.658 654.199 307.802 654.199 313.422C654.199 315.273 654.129 315.758 652.931 315.758C652.213 315.758 651.419 315.409 651.419 315.409C651.419 315.409 651.935 314.489 651.935 305.946Z" fill="#00437C"/>
<path d="M633.05 289.633C635.906 288.055 637.412 284.702 637.796 283.847C639.641 283.882 640.435 285.486 640.435 285.486C639.854 287.782 636.143 289.947 634.121 289.947C633.879 289.947 633.292 289.911 633.05 289.805V289.633ZM636.315 305.713C637.518 305.713 638.716 305.678 639.854 305.642C638.615 302.01 637.281 298.141 636.179 295.329H636.012C634.531 299.583 633.499 302.936 632.645 305.642C633.742 305.678 635.006 305.713 636.315 305.713ZM626.286 315.273C626.286 315.273 627.247 314.555 628.515 310.994L635.698 291.009C635.698 291.009 639.202 291.146 640.4 295.152C641.704 299.471 644.762 308.692 646.486 312.501C647.441 314.656 647.653 315.071 648.063 315.273V315.445C648.063 315.445 646.753 315.789 645.555 315.789C644.049 315.789 642.806 315.202 642.391 313.73C641.951 312.182 641.299 309.962 640.47 307.463C639.404 307.428 638.201 307.387 637.033 307.387C635.284 307.387 633.535 307.463 632.094 307.524C630.027 313.765 630.204 315.789 627.52 315.789C626.943 315.789 626.286 315.445 626.286 315.445V315.273Z" fill="#00437C"/>
<path d="M615.342 302.835C615.342 299.987 615.267 297.281 615.165 295.091C615.13 294.605 615.095 294.19 615.095 293.852C612.896 293.821 612.077 293.821 611.521 293.821C609.772 293.821 608.26 294.029 607.543 294.125C607.543 294.125 607.437 293.371 607.437 292.754C607.437 292.066 607.578 291.287 608.23 291.287C608.23 291.287 619.765 291.454 623.233 291.454C624.916 291.454 626.397 291.211 626.974 291.105C626.974 291.105 627.12 291.97 627.12 292.82C627.12 293.583 626.842 293.953 626.468 293.953C626.468 293.953 623.203 293.922 619.427 293.887C619.386 296.664 619.285 299.233 619.285 301.914C619.285 306.401 619.285 310.892 619.867 315.445C619.007 315.581 618.289 315.789 617.572 315.789C616.369 315.789 615.342 315.313 615.342 313.457V302.835Z" fill="#00437C"/>
<path d="M596.589 305.713C597.787 305.713 598.995 305.677 600.133 305.642C598.889 302.01 597.55 298.141 596.458 295.329H596.276C594.805 299.582 593.774 302.936 592.914 305.642C594.016 305.677 595.285 305.713 596.589 305.713ZM586.565 315.273C586.565 315.273 587.521 314.554 588.795 310.994L595.967 291.009C595.967 291.009 599.476 291.145 600.674 295.151C601.983 299.471 605.041 308.692 606.755 312.501C607.715 314.656 607.922 315.07 608.342 315.273V315.445C608.342 315.445 607.033 315.789 605.825 315.789C604.318 315.789 603.085 315.202 602.67 313.73C602.22 312.182 601.573 309.962 600.749 307.463C599.683 307.428 598.48 307.387 597.312 307.387C595.558 307.387 593.804 307.463 592.358 307.524C590.311 313.765 590.478 315.789 587.799 315.789C587.212 315.789 586.565 315.445 586.565 315.445V315.273Z" fill="#00437C"/>
<path d="M576.465 290.933C579.589 290.933 584.159 292.177 584.159 294.196C584.159 294.949 583.436 296.244 582.784 296.937H582.577C580.828 294.231 578.143 292.86 575.606 292.86C571.795 292.86 568.256 296.047 568.256 302.622C568.256 307.837 571.072 312.941 576.779 312.941C579.458 312.941 582.238 312.122 584.609 310.129L584.705 310.24C584.058 313.32 580.282 315.961 575.879 315.961C567.746 315.961 564.03 310.24 564.03 304.271C564.03 297.584 568.63 290.933 576.465 290.933Z" fill="#00437C"/>
<path d="M539.312 291.419C539.312 291.419 540.585 291.11 541.202 291.11C542.744 291.11 543.917 291.899 543.917 293.24C543.917 295.632 543.881 302.385 543.881 305.263C543.881 310.852 546.323 313.902 550.271 313.902C554.153 313.902 556.625 310.852 556.625 305.263C556.625 300.225 556.625 295.465 556.245 291.419C556.245 291.419 557.277 291.11 557.792 291.11C559.096 291.11 559.127 291.899 559.127 293.24C559.127 296.214 558.859 301.94 558.859 304.818C558.859 311.884 556.008 315.961 549.411 315.961C543.78 315.961 539.731 312.804 539.731 305.03C539.731 292.233 539.312 291.727 539.312 291.419Z" fill="#00437C"/>
<path d="M523.354 303.998C521.706 302.319 517.991 296.006 516.272 293.538C515.59 292.547 514.594 291.621 514.594 291.621V291.454C514.594 291.454 515.554 291.176 517.202 291.176C519.542 291.176 519.876 291.692 520.574 292.961C521.974 295.5 524.486 299.34 526.129 301.565H526.311C531.28 293.786 531.553 291.176 534.242 291.176C535.132 291.176 536.163 291.454 536.163 291.454V291.621C536.163 291.621 535 292.547 533.999 293.852C532.382 295.905 528.126 302.39 527.302 303.927C527.302 307.771 527.368 311.58 527.888 315.445C527.029 315.581 526.311 315.789 525.578 315.789C524.38 315.789 523.354 315.313 523.354 313.452V303.998Z" fill="#00437C"/>
<path d="M494.096 305.713C495.299 305.713 496.502 305.677 497.64 305.642C496.396 302.01 495.062 298.141 493.965 295.328H493.793C492.312 299.582 491.281 302.936 490.426 305.642C491.523 305.677 492.792 305.713 494.096 305.713ZM484.067 315.273C484.067 315.273 485.028 314.554 486.307 310.993L493.485 291.009C493.485 291.009 496.983 291.145 498.181 295.151C499.485 299.471 502.548 308.692 504.262 312.501C505.222 314.656 505.434 315.07 505.839 315.273V315.445C505.839 315.445 504.54 315.789 503.337 315.789C501.83 315.789 500.587 315.202 500.172 313.73C499.738 312.182 499.075 309.962 498.251 307.463C497.19 307.428 495.987 307.387 494.814 307.387C493.065 307.387 491.316 307.463 489.876 307.524C487.818 313.765 487.985 315.789 485.301 315.789C484.725 315.789 484.067 315.445 484.067 315.445V315.273Z" fill="#00437C"/>
<path d="M471.809 303.042C474.251 303.042 476.242 301.803 476.242 298.348C476.242 295.597 474.625 293.27 470.065 293.27H468.994C468.897 296.148 468.862 300.129 468.862 302.658C469.853 303.002 470.849 303.042 471.809 303.042ZM464.909 305.956C464.909 303.108 464.838 297.246 464.737 295.055C464.565 291.722 464.394 291.388 464.394 291.388C464.394 291.388 465.743 291.454 467.138 291.454H471.4C477.344 291.454 480.301 294.191 480.301 297.62C480.301 303.69 474.731 304.509 474.731 304.509V304.681C474.731 304.681 480.539 313.325 483.415 314.969V315.202C483.415 315.202 481.393 315.647 480.397 315.647C474.973 315.647 472.33 305.298 469.342 304.448L468.862 304.307C468.862 305.131 469.029 309.689 469.029 313.457C469.029 315.313 467.998 315.789 466.8 315.789C466.082 315.789 465.319 315.581 464.469 315.445C464.469 315.445 464.909 314.484 464.909 305.956Z" fill="#00437C"/>
<path d="M438.396 291.419C438.396 291.419 439.67 291.11 440.292 291.11C441.839 291.11 443.001 291.899 443.001 293.24C443.001 295.632 442.966 302.385 442.966 305.263C442.966 310.852 445.403 313.902 449.355 313.902C453.238 313.902 455.709 310.852 455.709 305.263C455.709 300.225 455.709 295.465 455.335 291.419C455.335 291.419 456.367 291.11 456.877 291.11C458.181 291.11 458.212 291.899 458.212 293.24C458.212 296.214 457.949 301.939 457.949 304.818C457.949 311.884 455.093 315.961 448.496 315.961C442.865 315.961 438.816 312.804 438.816 305.03C438.816 292.233 438.396 291.727 438.396 291.419Z" fill="#00437C"/>
<path d="M423.332 302.835C423.332 299.987 423.267 297.281 423.16 295.091C423.125 294.605 423.095 294.19 423.095 293.852C420.891 293.821 420.067 293.821 419.521 293.821C417.772 293.821 416.255 294.029 415.533 294.125C415.533 294.125 415.437 293.371 415.437 292.754C415.437 292.066 415.568 291.287 416.225 291.287C416.225 291.287 427.76 291.454 431.233 291.454C432.916 291.454 434.392 291.211 434.974 291.105C434.974 291.105 435.115 291.97 435.115 292.82C435.115 293.583 434.837 293.953 434.453 293.953C434.453 293.953 431.198 293.922 427.422 293.887C427.386 296.664 427.285 299.233 427.285 301.914C427.285 306.401 427.285 310.892 427.867 315.445C427.012 315.581 426.284 315.789 425.567 315.789C424.358 315.789 423.332 315.313 423.332 313.457V302.835Z" fill="#00437C"/>
<path d="M405.14 290.933C408.264 290.933 412.829 292.177 412.829 294.195C412.829 294.949 412.111 296.244 411.459 296.937H411.252C409.503 294.231 406.818 292.86 404.276 292.86C400.469 292.86 396.931 296.047 396.931 302.622C396.931 307.837 399.747 312.941 405.448 312.941C408.122 312.941 410.908 312.122 413.284 310.129L413.38 310.24C412.733 313.32 408.946 315.961 404.554 315.961C396.42 315.961 392.705 310.24 392.705 304.271C392.705 297.584 397.305 290.933 405.14 290.933Z" fill="#00437C"/>
<path d="M374.709 305.951C374.709 303.897 374.578 296.699 374.502 295.055C374.33 291.727 374.158 291.454 374.158 291.454H380.477C385.729 291.454 388.064 291.105 388.064 291.105C387.862 292.789 387.766 293.953 385.289 293.953C381.205 293.953 378.758 293.412 378.758 293.412C378.758 294.813 378.728 298.449 378.697 301.838H383.98C385.39 301.838 386.007 301.499 386.007 301.499C385.941 303.108 385.729 304.034 383.944 304.034C382.165 304.034 378.657 303.826 378.657 303.826V307.392C378.657 309.244 378.758 311.095 378.794 313.189L385.077 313.017C387.311 312.946 388.822 312.708 389.687 312.258C389.717 312.637 389.717 312.946 389.717 313.224C389.717 315.414 388.964 315.617 386.457 315.617L374.33 315.45C374.33 315.45 374.709 314.494 374.709 305.951Z" fill="#00437C"/>
<path d="M355.622 305.951C355.622 303.108 355.516 297.246 355.42 295.055C355.243 291.727 355.071 291.419 355.071 291.419C355.622 291.247 356.067 291.105 356.618 291.105C358.165 291.105 359.671 291.899 359.671 293.24C359.671 297.215 359.504 300.366 359.504 303.007C359.504 307.428 359.504 309.866 359.57 313.189L365.853 313.017C368.088 312.946 369.599 312.708 370.458 312.258C370.489 312.637 370.489 312.946 370.489 313.224C370.489 315.414 369.73 315.617 367.228 315.617L355.243 315.45C355.243 315.45 355.622 314.494 355.622 305.951Z" fill="#00437C"/>
<path d="M331.864 305.713C333.067 305.713 334.265 305.677 335.402 305.642C334.164 302.01 332.829 298.141 331.727 295.328H331.56C330.079 299.582 329.043 302.936 328.184 305.642C329.286 305.677 330.56 305.713 331.864 305.713ZM321.835 315.273C321.835 315.273 322.795 314.554 324.064 310.993L331.247 291.009C331.247 291.009 334.75 291.145 335.943 295.151C337.252 299.471 340.316 308.692 342.029 312.501C342.985 314.656 343.202 315.07 343.611 315.273V315.445C343.611 315.445 342.302 315.789 341.104 315.789C339.588 315.789 338.349 315.202 337.945 313.73C337.5 312.182 336.843 309.962 336.019 307.463C334.952 307.427 333.749 307.387 332.582 307.387C330.833 307.387 329.079 307.463 327.643 307.524C325.581 313.765 325.752 315.789 323.068 315.789C322.482 315.789 321.835 315.445 321.835 315.445V315.273Z" fill="#00437C"/>
<path d="M306.175 305.951C306.175 303.108 306.074 297.246 305.973 295.055C305.796 291.727 305.624 291.419 305.624 291.419C306.175 291.247 306.62 291.105 307.171 291.105C308.713 291.105 310.224 291.899 310.224 293.24C310.224 297.215 310.057 300.366 310.057 303.007C310.057 307.428 310.057 309.866 310.128 313.189L316.406 313.017C318.645 312.946 320.157 312.708 321.016 312.258C321.041 312.637 321.041 312.946 321.041 313.224C321.041 315.414 320.288 315.617 317.786 315.617L305.796 315.45C305.796 315.45 306.175 314.494 306.175 305.951Z" fill="#00437C"/>
<path d="M278.09 305.951C278.09 303.897 277.948 296.699 277.888 295.055C277.711 291.727 277.544 291.454 277.544 291.454H283.857C289.115 291.454 291.45 291.105 291.45 291.105C291.248 292.789 291.136 293.953 288.67 293.953C284.58 293.953 282.144 293.412 282.144 293.412C282.144 294.813 282.109 298.449 282.073 301.838H287.36C288.776 301.838 289.388 301.5 289.388 301.5C289.322 303.108 289.115 304.034 287.33 304.034C285.546 304.034 282.043 303.826 282.043 303.826V307.392C282.043 309.244 282.144 311.095 282.174 313.189L288.463 313.017C290.697 312.946 292.203 312.708 293.063 312.258C293.103 312.638 293.103 312.946 293.103 313.224C293.103 315.414 292.35 315.617 289.842 315.617L277.711 315.45C277.711 315.45 278.09 314.494 278.09 305.951Z" fill="#00437C"/>
<path d="M259.69 313.73C264.972 313.73 268.036 309.345 268.036 304.064C268.036 296.072 262.192 293.27 256.632 293.27C256.081 293.27 255.499 293.27 254.948 293.3C254.948 293.3 254.847 301.601 254.847 305.814C254.847 307.908 254.878 309.997 254.948 312.122C254.984 313.528 257.87 313.73 259.69 313.73ZM250.9 305.951C250.9 303.892 250.758 296.694 250.682 295.056C250.515 291.717 250.349 291.454 250.349 291.454H257.976C265.078 291.454 272.469 294.12 272.469 303.417C272.469 310.508 267.414 315.753 260.792 315.753C257.764 315.753 256.147 315.445 250.515 315.445C250.515 315.445 250.9 314.484 250.9 305.951Z" fill="#00437C"/>
<path d="M613.104 264.833C613.104 261.985 612.998 256.128 612.896 253.933C612.725 250.61 612.553 250.296 612.553 250.296C613.104 250.129 613.549 249.988 614.1 249.988C615.641 249.988 617.158 250.777 617.158 252.117C617.158 256.088 616.986 259.244 616.986 261.889C616.986 266.305 616.986 268.743 617.052 272.056L623.335 271.894C625.569 271.818 627.081 271.581 627.945 271.136C627.97 271.52 627.97 271.818 627.97 272.092C627.97 274.292 627.217 274.499 624.715 274.499L612.725 274.327C612.725 274.327 613.104 273.366 613.104 264.833Z" fill="#00437C"/>
<path d="M597.479 264.595C598.687 264.595 599.885 264.555 601.022 264.525C599.784 260.888 598.439 257.018 597.348 254.206H597.171C595.695 258.455 594.663 261.803 593.804 264.525C594.901 264.555 596.175 264.595 597.479 264.595ZM587.455 274.155C587.455 274.155 588.41 273.437 589.684 269.871L596.867 249.887C596.867 249.887 600.365 250.023 601.568 254.034C602.872 258.349 605.931 267.575 607.644 271.378C608.61 273.533 608.812 273.948 609.221 274.155V274.322C609.221 274.322 607.927 274.666 606.724 274.666C605.208 274.666 603.969 274.085 603.56 272.608C603.11 271.065 602.463 268.839 601.639 266.341C600.567 266.305 599.375 266.27 598.202 266.27C596.453 266.27 594.704 266.341 593.253 266.401C591.201 272.643 591.368 274.666 588.688 274.666C588.102 274.666 587.455 274.322 587.455 274.322V274.155Z" fill="#00437C"/>
<path d="M564.658 264.833C564.658 262.775 564.521 255.577 564.45 253.928C564.284 250.61 564.102 250.337 564.102 250.337C564.521 250.195 565.133 250.058 565.856 250.058C566.573 250.058 567.301 250.124 567.65 250.635C568.575 252.011 569.839 253.685 571.279 255.405L577.952 263.422C579.701 265.551 581.041 267.266 581.379 267.979L581.521 267.848C581.379 265.137 581.415 257.464 581.243 253.928C581.076 250.61 580.899 250.296 580.899 250.296C580.899 250.296 581.485 249.988 582.173 249.988C583.649 249.988 583.75 250.706 583.75 251.94C583.75 256.088 583.578 260.063 583.578 265.445C583.578 269.284 583.613 273.093 583.886 274.322C583.886 274.322 583.133 274.53 582.203 274.53C581.688 274.53 581.041 274.287 580.591 273.604C579.731 272.264 578.392 270.554 576.815 268.667L570.016 260.544C568.226 258.384 566.917 256.71 566.75 256.052L566.609 256.184C566.609 261.535 566.917 266.679 566.917 272.304C566.917 274.155 566.856 274.636 565.648 274.636C564.931 274.636 564.142 274.287 564.142 274.287C564.142 274.287 564.658 273.366 564.658 264.833Z" fill="#00437C"/>
<path d="M547.147 272.957C552.06 272.957 554.669 267.367 554.669 261.884C554.669 256.811 551.878 251.702 546.636 251.702C541.723 251.702 539.14 256.912 539.14 262.087C539.14 267.575 541.961 272.957 547.147 272.957ZM547.147 249.821C555.078 249.821 559.102 255.339 559.102 261.055C559.102 268.086 554.835 274.833 546.667 274.833C538.73 274.833 534.717 269.047 534.717 262.906C534.717 256.159 538.968 249.821 547.147 249.821Z" fill="#00437C"/>
<path d="M525.274 261.712C525.274 258.865 525.204 256.128 525.102 253.928C524.926 250.6 524.759 250.296 524.759 250.296C525.345 250.119 526.098 249.988 526.649 249.988C528.196 249.988 529.359 250.777 529.359 252.117C529.359 255.096 529.222 257.909 529.222 260.782C529.222 265.278 529.222 269.694 529.814 274.251C528.949 274.388 528.232 274.595 527.504 274.595C526.306 274.595 525.274 274.12 525.274 272.264V261.712Z" fill="#00437C"/>
<path d="M511.884 249.821C515.008 249.821 519.573 251.05 519.573 253.078C519.573 253.827 518.855 255.127 518.203 255.815H517.991C516.242 253.108 513.557 251.738 511.02 251.738C507.214 251.738 503.675 254.929 503.675 261.51C503.675 266.715 506.491 271.818 512.193 271.818C514.867 271.818 517.652 270.999 520.018 269.011L520.124 269.117C519.477 272.203 515.691 274.833 511.298 274.833C503.16 274.833 499.449 269.117 499.449 263.149C499.449 256.462 504.049 249.821 511.884 249.821Z" fill="#00437C"/>
<path d="M485.786 264.595C486.994 264.595 488.192 264.555 489.329 264.525C488.086 260.888 486.751 257.018 485.649 254.206H485.483C484.001 258.455 482.975 261.803 482.116 264.525C483.213 264.555 484.482 264.595 485.786 264.595ZM475.757 274.155C475.757 274.155 476.717 273.437 477.986 269.871L485.169 249.887C485.169 249.887 488.672 250.023 489.87 254.034C491.174 258.349 494.238 267.575 495.956 271.378C496.912 273.533 497.124 273.948 497.538 274.155V274.322C497.538 274.322 496.229 274.666 495.026 274.666C493.52 274.666 492.276 274.085 491.872 272.608C491.427 271.065 490.77 268.839 489.946 266.341C488.879 266.305 487.676 266.27 486.514 266.27C484.755 266.27 483.005 266.341 481.565 266.401C479.508 272.643 479.674 274.666 476.995 274.666C476.414 274.666 475.757 274.322 475.757 274.322V274.155Z" fill="#00437C"/>
<path d="M452.959 264.833C452.959 262.775 452.818 255.577 452.747 253.928C452.58 250.61 452.413 250.337 452.413 250.337C452.817 250.195 453.439 250.058 454.157 250.058C454.885 250.058 455.598 250.124 455.946 250.635C456.877 252.011 458.145 253.685 459.586 255.405L466.249 263.422C468.003 265.551 469.347 267.266 469.686 267.979L469.827 267.848C469.686 265.137 469.721 257.464 469.549 253.928C469.372 250.61 469.2 250.296 469.2 250.296C469.2 250.296 469.787 249.988 470.474 249.988C471.95 249.988 472.057 250.706 472.057 251.94C472.057 256.088 471.885 260.063 471.885 265.445C471.885 269.284 471.92 273.093 472.188 274.322C472.188 274.322 471.435 274.53 470.505 274.53C469.994 274.53 469.347 274.287 468.892 273.604C468.038 272.264 466.698 270.554 465.116 268.667L458.317 260.544C456.528 258.384 455.224 256.71 455.057 256.052L454.91 256.184C454.91 261.535 455.224 266.679 455.224 272.304C455.224 274.155 455.153 274.636 453.955 274.636C453.237 274.636 452.449 274.287 452.449 274.287C452.449 274.287 452.959 273.366 452.959 264.833Z" fill="#00437C"/>
<path d="M437.309 261.915C439.746 261.915 441.737 260.681 441.737 257.221C441.737 254.474 440.13 252.148 435.555 252.148H434.494C434.392 255.026 434.362 259.006 434.362 261.54C435.353 261.879 436.349 261.915 437.309 261.915ZM430.404 264.833C430.404 261.986 430.333 256.128 430.237 253.928C430.06 250.605 429.889 250.261 429.889 250.261C429.889 250.261 431.228 250.332 432.643 250.332H436.895C442.839 250.332 445.791 253.073 445.791 256.503C445.791 262.572 440.226 263.397 440.226 263.397V263.564C440.226 263.564 446.034 272.198 448.92 273.842V274.085C448.92 274.085 446.888 274.535 445.897 274.535C440.469 274.535 437.825 264.176 434.837 263.321L434.362 263.184C434.362 264.009 434.529 268.566 434.529 272.334C434.529 274.191 433.498 274.666 432.295 274.666C431.577 274.666 430.824 274.459 429.959 274.322C429.959 274.322 430.404 273.361 430.404 264.833Z" fill="#00437C"/>
<path d="M410.457 264.833C410.457 262.775 410.316 255.582 410.25 253.933C410.073 250.61 409.906 250.337 409.906 250.337H416.23C421.477 250.337 423.817 249.988 423.817 249.988C423.605 251.667 423.514 252.83 421.032 252.83C416.948 252.83 414.506 252.284 414.506 252.284C414.506 253.69 414.471 257.327 414.436 260.716H419.728C421.128 260.716 421.755 260.377 421.755 260.377C421.689 261.985 421.477 262.906 419.688 262.906C417.908 262.906 414.405 262.714 414.405 262.714V266.27C414.405 268.121 414.506 269.972 414.542 272.056L420.825 271.894C423.059 271.818 424.566 271.581 425.425 271.136C425.465 271.52 425.465 271.818 425.465 272.092C425.465 274.292 424.707 274.499 422.195 274.499L410.073 274.327C410.073 274.327 410.457 273.366 410.457 264.833Z" fill="#00437C"/>
<path d="M394.555 261.712C394.555 258.864 394.494 256.158 394.388 253.958C394.353 253.483 394.317 253.073 394.317 252.729C392.119 252.704 391.295 252.704 390.744 252.704C388.995 252.704 387.483 252.906 386.765 253.002C386.765 253.002 386.659 252.249 386.659 251.636C386.659 250.944 386.796 250.165 387.448 250.165C387.448 250.165 398.988 250.331 402.456 250.331C404.139 250.331 405.615 250.089 406.206 249.988C406.206 249.988 406.343 250.847 406.343 251.707C406.343 252.461 406.065 252.83 405.691 252.83C405.691 252.83 402.42 252.795 398.649 252.764C398.609 255.536 398.508 258.116 398.508 260.787C398.508 265.278 398.508 269.765 399.089 274.322C398.235 274.459 397.517 274.666 396.794 274.666C395.596 274.666 394.555 274.191 394.555 272.334V261.712Z" fill="#00437C"/>
<path d="M363.655 264.833C363.655 262.775 363.523 255.577 363.452 253.928C363.275 250.61 363.104 250.337 363.104 250.337C363.523 250.195 364.14 250.058 364.853 250.058C365.575 250.058 366.298 250.124 366.642 250.635C367.572 252.011 368.846 253.685 370.282 255.405L376.949 263.422C378.703 265.551 380.037 267.266 380.381 267.979L380.523 267.848C380.381 265.137 380.417 257.464 380.245 253.928C380.068 250.61 379.901 250.296 379.901 250.296C379.901 250.296 380.487 249.988 381.17 249.988C382.651 249.988 382.752 250.706 382.752 251.94C382.752 256.088 382.58 260.063 382.58 265.445C382.58 269.284 382.615 273.093 382.893 274.322C382.893 274.322 382.135 274.53 381.205 274.53C380.69 274.53 380.038 274.287 379.588 273.604C378.733 272.264 377.394 270.554 375.812 268.667L369.013 260.544C367.228 258.384 365.919 256.71 365.752 256.052L365.611 256.184C365.611 261.535 365.919 266.679 365.919 272.304C365.919 274.155 365.853 274.636 364.65 274.636C363.927 274.636 363.139 274.287 363.139 274.287C363.139 274.287 363.655 273.366 363.655 264.833Z" fill="#00437C"/>
<path d="M352.463 261.712C352.463 258.865 352.392 256.128 352.291 253.928C352.119 250.6 351.947 250.296 351.947 250.296C352.534 250.119 353.287 249.988 353.838 249.988C355.385 249.988 356.547 250.777 356.547 252.117C356.547 255.096 356.411 257.909 356.411 260.782C356.411 265.278 356.411 269.694 356.992 274.251C356.138 274.388 355.42 274.595 354.692 274.595C353.494 274.595 352.463 274.12 352.463 272.264V261.712Z" fill="#00437C"/>
<path d="M328.806 264.595C330.014 264.595 331.212 264.555 332.35 264.525C331.106 260.888 329.777 257.018 328.675 254.206H328.498C327.022 258.455 325.99 261.803 325.131 264.525C326.228 264.555 327.502 264.595 328.806 264.595ZM318.782 274.155C318.782 274.155 319.743 273.437 321.011 269.871L328.194 249.886C328.194 249.886 331.692 250.023 332.89 254.034C334.2 258.349 337.258 267.575 338.977 271.378C339.937 273.533 340.139 273.948 340.554 274.155V274.322C340.554 274.322 339.25 274.666 338.041 274.666C336.535 274.666 335.297 274.084 334.887 272.608C334.437 271.065 333.79 268.839 332.966 266.341C331.9 266.305 330.697 266.27 329.524 266.27C327.78 266.27 326.031 266.341 324.58 266.401C322.518 272.643 322.695 274.666 320.016 274.666C319.429 274.666 318.782 274.322 318.782 274.322V274.155Z" fill="#00437C"/>
<path d="M310.987 261.712C310.987 258.865 310.917 256.128 310.816 253.928C310.639 250.6 310.467 250.296 310.467 250.296C311.053 250.119 311.811 249.988 312.362 249.988C313.909 249.988 315.072 250.777 315.072 252.117C315.072 255.096 314.935 257.909 314.935 260.782C314.935 265.278 314.935 269.694 315.522 274.251C314.662 274.388 313.945 274.595 313.217 274.595C312.014 274.595 310.987 274.12 310.987 272.264V261.712Z" fill="#00437C"/>
<path d="M295.433 261.915C297.875 261.915 299.866 260.68 299.866 257.221C299.866 254.474 298.259 252.147 293.684 252.147H292.618C292.517 255.026 292.481 259.006 292.481 261.54C293.477 261.879 294.473 261.915 295.433 261.915ZM288.533 264.833C288.533 261.986 288.463 256.128 288.361 253.928C288.185 250.605 288.013 250.261 288.013 250.261C288.013 250.261 289.357 250.332 290.763 250.332H295.024C300.963 250.332 303.92 253.073 303.92 256.503C303.92 262.572 298.355 263.397 298.355 263.397V263.564C298.355 263.564 304.163 272.198 307.044 273.842V274.085C307.044 274.085 305.022 274.535 304.022 274.535C298.593 274.535 295.959 264.176 292.966 263.321L292.481 263.184C292.481 264.009 292.653 268.566 292.653 272.334C292.653 274.191 291.622 274.666 290.419 274.666C289.701 274.666 288.948 274.459 288.088 274.322C288.088 274.322 288.533 273.361 288.533 264.833Z" fill="#00437C"/>
<path d="M268.582 264.833C268.582 262.774 268.446 255.582 268.38 253.933C268.203 250.61 268.036 250.337 268.036 250.337H274.345C279.607 250.337 281.942 249.988 281.942 249.988C281.735 251.667 281.634 252.83 279.157 252.83C275.073 252.83 272.636 252.284 272.636 252.284C272.636 253.69 272.601 257.327 272.565 260.716H277.858C279.258 260.716 279.885 260.377 279.885 260.377C279.814 261.985 279.607 262.906 277.818 262.906C276.033 262.906 272.525 262.714 272.525 262.714V266.27C272.525 268.121 272.636 269.972 272.667 272.056L278.955 271.894C281.184 271.818 282.695 271.581 283.555 271.136C283.59 271.52 283.59 271.818 283.59 272.092C283.59 274.292 282.837 274.499 280.325 274.499L268.203 274.327C268.203 274.327 268.582 273.366 268.582 264.833Z" fill="#00437C"/>
<path d="M250.869 264.833C250.869 262.774 250.728 255.577 250.662 253.933C250.485 250.61 250.318 250.337 250.318 250.337H256.632C261.889 250.337 264.224 249.987 264.224 249.987C264.022 251.662 263.916 252.83 261.444 252.83C257.527 252.83 254.918 252.284 254.918 252.284C254.918 253.73 254.883 257.463 254.848 260.923H260.14C261.55 260.923 262.162 260.584 262.162 260.584C262.096 262.193 261.889 263.118 260.1 263.118C258.315 263.118 254.817 262.906 254.817 262.906V266.133C254.817 268.055 254.954 270.144 254.954 272.334C254.954 274.191 253.923 274.666 252.725 274.666C251.997 274.666 251.279 274.459 250.424 274.322C250.424 274.322 250.869 273.366 250.869 264.833Z" fill="#00437C"/>
<path d="M691.449 196.862C691.449 198.845 689.675 199.502 687.613 199.502H686.956V194.136C687.401 194.136 687.764 193.994 688.356 193.994C690.641 193.994 691.449 194.94 691.449 196.862ZM686.956 205.233V201.045C687.401 201.045 687.84 200.969 688.209 201.045C689.822 202.664 690.934 206.331 691.965 207.955C692.329 207.955 694.396 207.874 695.493 207.874C695.64 207.439 695.64 206.999 695.64 206.771C692.405 206.7 693.138 202.37 690.641 200.448C692.703 199.937 694.098 198.622 694.098 196.64C694.098 194.439 692.627 192.806 689.387 192.806H683.058C683.058 193.256 683.058 193.772 683.134 194.06C684.459 194.212 684.676 194.439 684.676 195.678V205.233C684.676 206.26 684.307 206.7 683.205 206.852C683.058 207.135 683.058 207.585 683.058 207.955C683.569 207.955 684.898 207.874 685.778 207.874C686.809 207.874 687.694 207.955 688.507 207.955C688.507 207.585 688.507 207.135 688.356 206.852C687.249 206.852 686.956 206.331 686.956 205.233ZM689.17 211.844C695.64 211.844 700.574 206.771 700.574 200.529C700.574 194.212 695.64 189.143 689.17 189.143C682.907 189.143 677.827 194.212 677.827 200.529C677.827 206.771 682.907 211.844 689.17 211.844ZM689.17 186.721C696.899 186.721 703 192.957 703 200.529C703 208.167 696.899 214.267 689.17 214.267C681.663 214.267 675.405 208.167 675.405 200.529C675.405 192.957 681.663 186.721 689.17 186.721Z" fill="#00437C"/>
<path d="M641.346 98.4411C644.98 98.7699 651.562 98.7699 656.505 98.7699C661.449 98.7699 667.045 98.7699 670.664 98.4411C670.664 100.738 670.502 102.548 670.012 104.85C663.916 105.507 662.763 106.661 657.162 115.533L631.463 157.11V192.947C631.463 201.495 634.431 202.977 643.327 203.625C644.318 205.597 644.48 208.076 644.48 209.872C640.36 209.71 634.097 209.381 624.053 209.381C614.009 209.381 605.779 209.548 602.15 209.71C602.15 207.408 602.65 204.935 603.136 203.463C611.537 202.472 615.49 201.161 615.49 193.438V157.11L587.334 113.393C582.719 106.327 582.223 105.507 576.132 105.179C575.313 102.71 575.142 100.738 575.142 98.4411C579.762 98.603 586.015 98.7699 592.263 98.7699C598.531 98.7699 610.061 98.603 613.513 98.4411C613.513 100.904 613.347 102.548 612.689 104.85C604.789 105.507 602.974 107.485 606.927 113.722L628.506 147.743L649.418 114.379C653.7 107.642 651.066 105.34 642.498 105.179C641.846 102.877 641.346 100.904 641.346 98.4411Z" fill="#00437C"/>
<path d="M541.374 136.736C544.18 135.917 546.323 135.583 549.285 135.583C549.124 138.871 548.962 147.91 548.962 153.838C548.962 159.746 549.124 168.951 549.285 172.558C546.323 172.558 544.18 172.396 541.708 171.749C541.223 163.033 539.899 156.948 529.683 156.948H516.186V194.915C516.186 200.676 519.31 202.315 523.263 202.315H531.988C552.586 202.315 556.044 195.249 560.811 181.769C564.111 182.755 566.083 183.741 568.069 185.709C565.587 193.276 563.945 202.148 562.954 209.71C549.948 209.548 536.77 209.386 524.582 209.386C512.39 209.386 499.712 209.548 489.011 209.71C489.011 207.251 489.178 204.621 490.163 202.81C498.398 202.81 500.708 200.676 500.708 193.772V116.848C500.708 106.165 498.398 105.502 490.659 105.502C489.84 103.535 489.668 100.904 489.668 98.4462C500.708 98.603 513.386 98.77 524.911 98.77C536.441 98.77 548.628 98.603 558.677 98.4462C559.335 105.836 560.487 117.182 562.135 124.248C560.325 125.725 557.687 126.22 554.729 126.22C553.9 116.028 548.962 105.012 527.706 105.012H516.186V149.882H530.512C539.069 149.882 541.374 144.956 541.374 136.736Z" fill="#00437C"/>
<path d="M403.209 98.4412C409.301 98.603 415.225 98.77 422.307 98.77C429.394 98.77 434.499 98.603 440.262 98.2742C440.262 100.904 440.095 103.373 439.438 105.507C430.541 105.836 429.717 106.979 429.717 118.815V193.438C429.717 199.851 430.88 202.315 438.781 202.315H445.534C463.646 202.315 466.936 196.073 471.88 181.607C475.176 182.593 476.986 183.574 478.962 185.547C476.657 193.104 475.176 200.671 474.519 209.71C461.507 209.548 451.13 209.381 438.29 209.381C425.436 209.381 412.925 209.548 402.224 209.71C402.224 207.241 402.547 204.621 403.538 202.644C411.606 202.472 413.911 200.671 413.911 193.766V116.848C413.911 107.642 412.096 105.836 404.362 105.836C403.538 103.535 403.209 100.904 403.209 98.4412Z" fill="#00437C"/>
<path d="M347.868 98.2692C352.483 98.6081 360.222 98.7649 368.128 98.7649C374.386 98.7649 381.463 98.6081 387.064 98.2692C387.064 100.247 386.74 103.206 386.078 105.007C378.182 105.507 375.377 107.313 375.377 112.902V193.438C375.377 200.995 377.844 202.972 386.078 203.62C387.064 205.597 387.236 208.061 387.236 209.872C383.111 209.71 375.377 209.386 368.457 209.386C361.537 209.386 351.821 209.548 348.202 209.71C348.202 207.408 348.697 204.945 349.188 203.463C357.255 202.477 359.894 200.995 359.894 192.785V114.212C359.894 108.133 358.246 105.669 348.535 105.179C348.03 102.877 347.868 100.738 347.868 98.2692Z" fill="#00437C"/>
<path d="M310.659 126.347C313.924 125.573 316.997 125.194 319.879 125.194C319.686 129.033 319.494 138.613 319.494 144.556C319.494 152.427 319.686 164.126 319.879 168.339C316.997 168.339 313.924 168.152 311.043 167.571C310.466 154.723 309.314 150.317 294.902 150.317H281.84V184.642C281.84 200.362 283.569 200.752 296.818 201.323C298.36 203.251 298.941 206.311 298.941 209.76C289.327 209.573 284.338 209.381 274.541 209.381C264.158 209.381 258.012 209.573 250.323 209.76C250.323 206.7 250.712 204.014 251.86 201.516C262.045 200.939 263.198 200.175 263.198 182.148V101.42C263.198 89.1444 261.277 87.9962 251.668 87.9962C250.905 85.3053 250.712 82.6194 250.712 79.9437C262.627 80.1258 278.191 80.3179 289.135 80.3179C307.969 80.3179 322.381 80.1258 332.566 79.9437C332.951 89.5288 333.714 100.647 335.64 108.891C333.522 110.813 329.685 111.774 326.799 111.774C325.641 98.3451 318.539 87.6067 296.626 87.6067H281.84V141.88H295.281C309.314 141.88 310.274 137.854 310.659 126.347Z" fill="#00437C"/>
<path d="M98.7115 0H100.359C105.015 2.85784 99.4394 14.7444 99.0451 18.8971C98.2869 13.4192 98.0696 7.33933 96.7148 2.53917C97.4023 1.7147 98.1251 0.940811 98.7115 0Z" fill="#00437C"/>
<path d="M92.7318 5.09353C94.1522 8.59881 93.9248 13.9503 94.3949 18.5279C92.7318 14.2791 88.4908 10.9306 89.0671 5.43745C89.2642 3.57606 91.8724 4.54726 92.7318 5.09353Z" fill="#00437C"/>
<path d="M104.692 18.8921C104.642 14.8254 104.561 7.60741 106.699 4.72934C108.463 4.29434 109.631 4.32464 110.354 5.81173C109.838 11.6741 106.006 13.8997 104.692 18.8921Z" fill="#00437C"/>
<path d="M90.3914 21.411C87.5303 17.405 82.6625 15.6093 81.7627 9.4182C87.7376 6.03432 88.6273 16.712 90.3914 21.411Z" fill="#00437C"/>
<path d="M116.641 10.5261C115.615 15.7005 111.844 17.8755 109.676 21.7854C109.923 17.8553 111.91 6.04458 116.641 10.5261Z" fill="#00437C"/>
<path d="M122.637 14.8912C123.168 15.1441 122.551 16.6514 123.633 16.3429C121.662 20.4905 117.38 22.1041 114.332 25.0479C115.692 21.573 117.168 15.0884 122.637 14.8912Z" fill="#00437C"/>
<path d="M83.7649 29.4092C81.2797 29.8341 79.1519 27.7362 76.1094 26.5069C73.5318 25.4577 67.9494 24.9442 68.4597 21.4175C68.6557 20.1338 70.4478 19.2556 71.4561 19.2574C75.9491 19.2248 80.1886 27.5304 83.7649 29.4092Z" fill="#00437C"/>
<path d="M129.947 21.4111C127.692 26.8384 120.979 27.3443 115.995 29.7772C120.004 26.8081 123.845 17.4758 129.947 21.4111Z" fill="#00437C"/>
<path d="M99.0403 24.6937C97.3014 34.8656 104.161 38.9627 101.714 47.5717C99.1818 41.7953 88.5968 29.2157 99.0403 24.6937Z" fill="#00437C"/>
<path d="M105.021 25.4272C105.405 25.3563 105.612 25.5081 105.683 25.7863C103.11 35.3057 114.291 44.2636 105.021 49.3825C105.481 44.901 104.894 40.0047 103.348 35.943C102.508 35.9835 102.21 36.6006 101.71 37.0406C98.879 32.5945 102.155 27.1115 105.021 25.4272Z" fill="#00437C"/>
<path d="M80.7568 34.1408C77.6646 34.5422 74.4663 33.2004 70.4616 32.3134C67.709 31.7179 61.8094 31.7921 61.485 28.6837C61.2032 26.1865 63.5423 25.6244 65.4592 25.794C70.081 26.1516 76.1785 32.9232 80.7568 34.1408Z" fill="#00437C"/>
<path d="M136.598 27.9563C133.156 32.6705 124.659 31.8662 118.992 34.1373C120.65 32.9436 123.127 31.6437 125.609 30.1465C129.127 28.0474 133.06 23.8137 136.598 27.9563Z" fill="#00437C"/>
<path d="M103.681 334.782C109.024 333.325 107.993 321.919 100.355 324.231C93.8037 326.249 97.1096 336.583 103.681 334.782ZM100.036 321.327C100.694 320.655 103.347 320.842 104.015 321.327V316.982H99.7079C99.9303 318.308 99.2732 320.584 100.036 321.327ZM126.625 311.181C127.591 312.182 129.33 312.344 130.27 313.33V307.544C129.168 306.578 128.056 305.627 126.625 305.005V311.181ZM73.4528 307.17C73.66 309.233 73.0179 312.248 73.7863 313.705C74.4889 312.425 76.2278 312.263 77.1074 311.181C76.9001 309.092 77.5321 306.097 76.7688 304.62C75.6972 305.506 74.3879 306.143 73.4528 307.17ZM65.8096 292.284C62.8323 296.416 60.0824 302.122 58.8187 305.713C66.8156 300.26 70.4602 288.176 74.4434 279.578C68.6556 281.07 69.4997 287.185 65.8096 292.284ZM132.615 287.215C136.533 294.347 140.213 303.447 146.238 306.436C144.373 301.504 140.88 296.016 137.933 290.488C135.38 285.759 134.349 280.265 129.294 279.213C130.361 281.768 131.2 284.641 132.615 287.215ZM27.5846 198.248C25.5272 198.744 15.9482 206.725 15.6196 208.061C15.2607 209.629 16.7823 213.64 17.6113 215.688C18.597 218.025 19.7899 220.767 20.6139 222.572C33.0237 250.154 57.9998 267.291 87.4042 274.519C83.4816 281.469 79.8624 288.768 76.4402 296.29H86.0747V303.917H117.001C116.955 301.09 117.001 298.353 117.653 296.29C120.761 296.032 124.725 296.755 127.292 295.935C123.638 288.632 119.745 281.661 116.308 274.135C151.607 265.137 177.012 245.314 187.102 208.774C182.467 207.024 178.908 199.528 173.16 198.248C165.826 196.64 157.89 199.138 149.883 198.617C142.932 219.856 128.111 236.057 104.015 237.823C76.4553 239.836 56.5946 222.102 50.1951 198.617C43.2901 199.184 34.4441 196.629 27.5846 198.248ZM43.5428 193.17C37.8409 193.17 29.2224 191.794 24.2736 193.17C20.9728 194.07 18.7941 197.778 15.9482 200.438C13.264 202.962 9.32124 204.955 8.9775 207.686C8.6085 210.645 10.9387 216.199 12.2985 219.31C16.3879 228.597 21.0536 238.167 27.2509 245.82C40.1409 261.662 58.6115 271.884 78.7654 278.126C74.7316 286.29 70.3187 294.059 66.4719 302.455C70.6776 302.678 75.7577 301.985 79.4275 302.825V310.457H124.32V302.455H137.594C134.031 293.386 128.9 286.052 125.291 277.023C161.019 267.898 184.12 244.965 193.744 207.337C191.333 205.35 188.457 202.8 185.115 200.064C182.436 197.894 178.62 193.827 175.814 193.17C170.32 191.87 161.135 193.068 155.539 193.17C153.871 193.2 150.287 192.123 150.56 195.355C157.703 197.424 166.933 193.827 174.48 195.689C177.543 196.447 179.98 199.806 182.436 201.895C185.115 204.105 189.437 206.149 189.761 209.143C190.069 211.804 187.805 217.13 186.46 220.382C184.873 224.196 183.296 227.924 181.799 230.559C168.829 253.66 145.889 268.799 120.312 276.31C124.027 283.644 128.207 290.447 131.281 298.46C127.03 298.176 123.784 298.97 119.649 298.834V306.436C107.78 306.214 95.0422 306.937 83.7597 306.097V298.834C79.736 298.849 75.7122 298.9 72.1384 298.46C75.2371 290.493 80.11 284.408 83.0823 276.31C48.0165 265.971 22.201 245.541 12.2985 207.686C14.1991 205.587 16.5852 203.751 19.2693 201.51C21.5491 199.639 24.2737 196.351 26.9376 195.689C31.6791 194.556 39.4687 195.79 44.2152 195.689C45.3829 195.689 48.7039 196.857 48.8657 194.252C47.88 192.229 45.2311 193.17 43.5428 193.17ZM188.098 195.689C185.474 193.468 181.264 188.85 178.135 188.081C169.779 186.058 160.357 189.28 151.217 188.44V189.538C158.466 191.207 168.283 189.791 176.153 190.251C181.112 193.792 186.672 199.027 191.444 202.967C192.768 204.07 195.084 207.054 196.742 204.07C195.048 200.924 191.581 198.668 188.098 195.689ZM42.5319 188.081H21.6046C16.1048 193.316 8.78541 198.364 4.98918 204.07C8.93706 205.855 11.5352 201.04 14.6339 198.248C17.3686 195.749 21.4277 191 24.5971 190.251C29.5812 189.073 37.841 190.251 42.8858 190.251C44.4983 190.251 47.243 191.192 48.1883 189.169C47.2733 187.156 44.3668 188.081 42.5319 188.081ZM27.9232 152.138C26.4017 154.278 24.7538 156.938 22.9391 159.422C21.3013 161.597 18.7386 164.171 18.9407 166.296H38.8822C38.6547 156.615 39.3321 145.967 38.5587 136.893C35.2781 142.26 31.5273 147.131 27.9232 152.138ZM161.17 166.296H182.133C175.971 156.923 167.979 146.422 161.17 136.519V166.296ZM77.7697 140.14C66.4871 145.972 58.4802 155.254 53.8246 167.383C46.8994 185.547 52.4951 204.12 59.1524 213.862C67.5587 226.154 82.9408 235.734 100.036 235.658C120.655 235.542 138.196 221.571 145.576 204.424C152.532 188.182 147.295 165.911 139.581 155.421C132.322 145.512 117.557 133.504 96.7204 135.067C89.2998 135.628 83.234 137.333 77.7697 140.14ZM48.8657 147.424C49.078 156.857 48.4209 167.277 49.2044 176.098C53.3444 154.141 66.3404 141.84 84.0932 134.703C70.0456 136.443 59.2231 141.668 48.8657 147.424ZM149.883 171.389C150.13 172.214 151.465 181.617 151.217 176.463V147.424C140.359 141.966 128.768 135.401 114.675 134.703C131.685 140.14 144.363 152.942 149.883 171.389ZM32.235 87.8747V101.663H18.6122V129.635C25.7143 130.575 34.8131 129.351 41.8849 130.348C41.6524 147.181 42.3196 164.971 41.5311 181.172H32.235V173.2C33.9587 173.509 37.0221 172.35 37.2192 174.278C37.6894 176.857 33.7213 174.556 34.9092 177.904C35.0507 179.462 37.6892 178.273 38.8822 178.643V169.214H28.9191V185.547H46.2068V146.321C59.3293 137.242 78.351 130.712 99.7079 130.712C121.171 130.712 140.405 137.05 153.553 146.321V185.547H171.169V169.214H161.17V178.289C162.53 177.818 165.71 179.346 165.513 177.201C166.301 174.379 162.03 177.11 163.167 173.918C163.405 172.558 167.09 173.139 167.838 173.569C167.62 175.977 168.273 179.346 167.494 181.172C164.502 180.975 160.67 181.642 158.188 180.828C158.421 163.878 157.753 145.967 158.517 129.635H180.47V101.314H166.503V87.8747H32.235ZM25.6031 80.9704C25.1785 81.1373 24.9155 81.4408 24.9357 82.0579V94.3997H11.3027V136.893C17.7679 136.847 24.1168 136.923 29.9047 137.626C25.603 143.428 21.635 149.639 17.3029 155.421C14.0931 159.452 11.0096 165.067 7.97664 169.214C7.04149 170.484 4.82738 171.556 5.63616 173.2H21.266V185.547H25.9417V169.214C21.5338 169.295 17.869 168.557 13.3044 168.835C20.3863 158.355 28.4541 146.994 35.5663 136.893C36.4762 135.598 38.1847 134.258 37.8915 132.528C30.567 132.285 22.3831 133.008 15.6196 132.174C15.842 121.152 15.195 109.174 15.9482 98.7699H29.5812C29.8087 94.3997 29.1465 89.0735 29.9047 85.3305C76.2278 85.5632 123.42 84.855 169.167 85.6998V98.7699C173.818 99.0077 179.358 98.2945 183.462 99.1291C183.245 110.029 183.897 121.881 183.129 132.174C176.805 133.008 169.076 132.3 162.176 132.528C169.167 144.288 179.808 157.095 186.783 168.835C182.072 168.557 178.402 169.376 173.818 169.214V185.547H178.463V173.2C183.407 172.532 189.311 172.947 194.74 172.846C188.093 161.096 177.427 148.663 170.497 137.242C176.83 137.368 182.31 136.605 188.775 136.893C188.376 121.693 189.7 109.023 188.775 94.3997H173.474V80.9704H25.6031ZM103.352 338.044H100.699C96.6092 336.264 93.9503 334.559 93.7279 330.037C93.4549 324.387 98.1055 323.669 96.7204 316.982C88.2737 316.755 78.9878 317.458 71.1325 316.633V308.985C65.6782 308.52 59.4051 308.955 54.1783 308.272C58.9299 298.783 64.1062 289.83 68.4636 279.947C44.0282 271.859 24.1168 255.283 12.2985 232.37C8.24445 224.51 3.76083 213.513 3.33116 202.618C8.03222 197.095 13.8353 192.795 18.9407 187.712V175.744H0C7.93619 163.342 16.7518 151.926 24.9357 139.801C19.7191 139.554 13.6331 140.262 8.9775 139.427C8.46696 124.248 8.39114 106.666 8.9775 91.4812H22.287V78.7904C44.66 78.0569 68.1753 78.583 91.0639 78.4313C92.1457 70.8036 87.5407 67.5461 88.0664 61.7242C86.1304 60.1866 83.8557 55.3105 87.0858 53.3834C80.6762 46.302 86.0546 31.4565 92.4035 29.7823C90.4726 39.0791 99.9354 42.7664 97.049 51.9267C95.5629 46.1604 91.4633 43.2773 88.395 39.2257C87.1313 44.1422 85.9282 55.4319 92.0547 54.0966C91.9991 51.7446 89.5323 50.1058 90.7404 47.5717C92.8989 47.9561 92.8483 50.819 93.7279 52.2909C94.6782 53.869 96.6901 54.5165 96.7204 56.6409C96.493 57.7334 93.7027 56.0187 94.3952 58.1027C94.5822 60.4496 98.0144 59.2205 99.0406 60.6368C98.0296 62.918 92.7523 60.5457 91.3925 62.4678C90.5079 63.5755 91.064 66.2007 92.7372 65.7202C94.7693 65.5887 91.3369 62.5993 93.4044 62.4678C96.3817 61.4764 95.5628 64.663 96.3817 66.0995C97.7111 66.9392 99.8545 66.8937 100.036 69.0029C98.333 69.7718 95.3152 69.1546 93.0607 69.3569C93.5611 72.2097 92.4844 77.9558 95.0422 78.4313C98.5149 76.1905 92.7119 73.0444 94.7136 71.1729C99.4854 69.8274 96.2199 77.2426 98.712 78.4313H100.036C101.993 75.3053 97.8375 73.8385 99.0406 71.5421C102.442 69.6858 101.684 75.3711 101.715 78.4313H106.35C106.35 75.5228 106.224 72.498 106.699 70.0752C106.638 68.4414 103.888 69.7465 104.348 67.531C105.455 65.4521 108.706 65.7505 108.337 62.0834C106.679 60.7682 101.715 63.0596 101.042 60.6368C103.782 58.1886 111.637 61.35 111.673 55.9327C107.048 55.4219 101.184 58.6742 97.7111 55.9327C103.661 54.7036 109.105 54.3191 110.005 48.2949C111.703 50.3536 108.033 53.2873 110.005 54.4709C118.8 47.2935 103.989 37.0963 109.681 27.9613C109.878 34.0614 115.135 38.0877 115.651 43.9399C116.045 48.3354 113.361 52.0734 114.332 57.3692C109.828 61.6433 108.579 69.5138 108.337 78.4313H176.153V91.4812C181.703 91.2536 186.222 92.1084 191.763 91.8606C191.505 107.895 192.152 124.845 191.763 139.801C186.071 139.629 181.279 140.439 175.481 140.14C183.296 152.093 192.966 163.908 199.744 175.744H181.127V186.994C183.867 190.206 186.976 192.659 190.752 195.689C193.699 198.071 199.188 200.949 199.744 205.147C200.482 210.772 195.791 219.467 194.426 223.306C184.2 252.056 161.625 270.235 135.921 279.947C140.501 289.947 145.748 299.249 150.56 308.985C144.691 309.228 137.933 308.52 132.615 309.36V316.982H106.35C104.672 322.01 109.464 324.074 110.005 327.518C110.95 333.593 107.507 335.9 103.352 338.044Z" fill="#00437C"/>
<path d="M79.4228 39.9339C72.1538 39.0285 59.5721 40.8292 54.1785 36.6765C53.764 34.9466 55.3867 32.9234 56.4988 33.0397C62.9084 33.7832 73.1749 38.3254 79.4228 39.9339Z" fill="#00437C"/>
<path d="M77.1068 45.7449C72.4652 46.5237 66.6443 46.7551 61.1494 47.1951C55.978 47.6261 49.8258 49.3335 46.5419 46.1102C46.0269 44.8973 46.9958 42.6296 48.188 42.1348C58.2517 42.8745 67.4823 44.5397 77.1068 45.7449Z" fill="#00437C"/>
<path d="M120.644 46.11C128.403 45.068 139.301 43.2976 146.56 42.8525C148.754 42.7109 152.398 41.9624 151.544 46.11C150.705 50.1059 140.959 47.4958 136.925 47.1873C130.561 46.7422 126.047 46.5248 120.644 46.11Z" fill="#00437C"/>
<path d="M77.7771 52.2881C68.1174 54.2819 57.3908 56.5956 46.873 58.8233C43.5798 59.5136 38.1208 60.3126 37.8884 57.0099C37.7066 54.3938 40.9921 53.6382 42.8805 53.379C52.8161 52.0399 67.822 53.6346 77.7771 52.2881Z" fill="#00437C"/>
<path d="M120.321 52.6449C120.321 52.2959 120.71 52.3616 120.988 52.2858C129.642 52.7966 141.117 52.9585 150.241 53.3783C153.744 53.525 158.642 52.2706 160.184 55.9226C159.775 60.9656 154.452 59.3318 151.55 58.8209C141.602 57.0809 130.183 54.1117 120.321 52.6449Z" fill="#00437C"/>
<path d="M120.642 58.452C128.819 59.3917 137.509 61.7963 146.239 63.9137C154.698 65.9697 163.944 66.5585 170.829 70.8044C170.652 77.967 162.428 73.6414 159.527 72.6097C146.864 68.0872 133.367 62.4065 120.642 58.452Z" fill="#00437C"/>
<path d="M105.36 71.8879C106.032 72.9859 105.537 75.3287 105.683 76.9802L104.694 76.9832C103.664 76.0474 103.593 74.0589 103.36 72.2532C103.739 71.8439 104.539 71.8467 105.36 71.8879Z" fill="#00437C"/>
<path d="M41.1978 91.1525C39.1961 99.3214 36.8102 107.156 34.9045 115.457C36.5625 115.578 37.2197 114.617 38.8828 114.744V118.745C47.8451 125.431 43.4979 99.4883 44.5442 91.1525H47.845C46.551 103.044 51.7879 122.058 41.8803 124.536C39.4135 123.125 35.7386 123.014 35.2179 119.458C33.6914 120.171 31.2347 119.933 29.9053 120.915C31.1892 111.178 35.0562 101.112 37.2197 91.1525H41.1978Z" fill="#00437C"/>
<path d="M53.1779 91.1473C56.5091 94.6071 57.2168 100.985 60.1537 104.921C62.1554 99.124 58.0862 96.7922 58.4957 91.4812C59.2135 90.8287 60.9321 91.2535 62.1554 91.1473C62.5648 93.2262 62.5294 95.8362 63.8083 96.9591V114.01C62.6861 114.243 62.1149 115.042 60.4923 114.743C58.1367 110.434 56.4231 105.396 54.1737 100.935C53.3952 103.489 54.0473 107.606 53.83 110.748C54.1282 111.532 55.2958 111.329 55.8266 111.825V116.559C54.6084 117.278 53.5015 118.127 51.8333 118.355C52.3793 115.259 51.0751 114.142 50.1955 112.543C50.4028 105.533 49.7457 97.5458 50.5241 91.1473H53.1779Z" fill="#00437C"/>
<path d="M75.4547 91.1524C76.496 96.1599 72.9372 106.231 78.1134 106.757C79.1042 102.371 77.8002 95.5125 78.7657 91.1524H82.0866C82.395 97.6875 83.962 108.664 79.1043 110.748C75.2575 111.329 73.6905 109.397 72.1387 107.47V91.1524H75.4547Z" fill="#00437C"/>
<path d="M98.3733 100.935H100.355V95.1433C97.1449 94.2783 98.7524 98.689 98.3733 100.935ZM104.02 92.9329C104.651 100.024 101.977 104.243 104.692 108.901H101.042C100.436 107.278 100.309 105.123 99.359 103.858C97.514 103.858 98.7221 107.257 98.3733 108.901H94.7135C94.9814 102.72 94.2131 97.6269 94.39 91.4762C96.6749 91.5925 102.559 90.7781 104.02 92.9329Z" fill="#00437C"/>
<path d="M115.989 96.5747C115.438 97.1918 114.043 96.8782 113.007 96.9592C111.763 96.7214 112.496 94.3492 110.353 95.1484C109.61 95.0775 110.181 96.4281 110.004 96.9592C112.461 99.9536 117.698 99.9131 115.989 107.465C115.089 108.067 114.518 109.003 113.649 109.64C111.859 109.564 110.439 109.078 108.336 109.286C107.709 107.419 106.056 106.701 106.339 103.853C107.386 102.913 108.72 103.944 110.004 103.853V106.388C111.157 106.681 111.278 105.841 112.319 106.033C113.007 101.066 108.639 101.577 106.339 99.8575C106.739 96.9592 105.804 95.5733 106.339 93.6916C107.709 88.9775 117.571 90.1863 115.989 96.5747Z" fill="#00437C"/>
<path d="M121.641 91.1473V110.368C120.165 110.657 119.634 109.898 118.299 110.014V91.1473H121.641Z" fill="#00437C"/>
<path d="M130.614 108.563C131.23 108.026 131.478 107.116 132.615 107.116C131.215 103.307 131.089 98.1226 128.946 95.1484H127.945C128.344 100.141 126.504 107.607 130.614 108.563ZM130.614 91.1474C133.91 96.6153 136.462 102.913 137.256 111.107C134.921 110.095 134.915 111.673 133.925 112.907C129.749 112.538 126.327 111.324 124.315 108.563C124.507 103.11 123.85 96.7113 124.624 91.8606C125.791 90.7023 128.506 91.2688 130.614 91.1474Z" fill="#00437C"/>
<path d="M142.25 104.212H146.233V95.1433H140.253C140.096 99.038 141.426 101.329 142.25 104.212ZM149.883 92.9329C150.656 100.818 149.984 110.247 150.231 118.729C148.649 118.729 148.194 117.561 146.556 117.652V108.193C145.995 107.257 144.357 107.465 142.902 107.465C142.295 109.832 142.654 113.251 141.921 115.457C140.844 114.931 139.656 114.551 138.261 114.369C138.14 112.604 139.424 111.784 139.576 110.368C140.162 105.462 135.714 100.024 135.916 95.4873C135.982 94.3542 136.796 91.6835 137.933 91.1474C140.804 89.7665 147.466 91.0664 149.883 92.9329Z" fill="#00437C"/>
<path d="M156.201 113.282C157.116 115.315 159.188 116.059 158.516 119.812C159.851 120.439 161.079 121.157 162.525 121.638C162.727 119.812 162.07 117.045 162.863 115.821C164.173 115.725 164.516 116.676 165.826 116.559C163.632 109.534 161.797 102.088 159.527 95.1484H156.201V113.282ZM152.218 91.1474C155.185 91.7442 159.037 91.4003 162.525 91.4812C165.512 102.24 168.666 112.847 171.811 123.438C169.566 123.236 168.419 121.845 166.508 121.258C165.993 123.261 166.361 126.19 164.516 126.716C161.276 125.052 158.789 122.553 155.215 121.258C156.049 117.455 153.062 117.773 152.218 115.821V91.1474Z" fill="#00437C"/>
<path d="M69.7825 91.4777C69.5762 98.2867 70.2211 106.023 69.4541 112.215C68.523 112.62 67.5615 112.991 66.4692 113.28C65.7027 106.747 66.3519 98.6399 66.1308 91.4794L69.7825 91.4777Z" fill="#00437C"/>
<path d="M84.4323 91.4811C88.173 91.0512 90.8166 91.7543 92.4039 93.6966C91.9742 94.774 91.0189 95.3607 90.7409 96.5848C89.8108 96.2408 89.3205 95.472 88.4055 95.1482C87.6574 95.6389 88.2841 97.6672 88.0668 98.7699H92.7325C92.1057 99.5438 92.505 101.43 92.4039 102.751H88.4055C87.6574 103.135 88.2841 105.047 88.0668 106.038C89.7046 106.104 90.5841 105.391 92.4039 105.654V109.286C89.563 109.119 87.6625 109.928 84.7509 109.645C83.9977 104.293 84.6396 97.4396 84.4323 91.4811Z" fill="#00437C"/>
<path d="M89.4108 117.273V124.536C90.3459 125.315 91.0788 126.337 93.0603 126.003C94.0359 123.848 93.9651 118.81 93.404 116.195C91.9432 116.418 90.2347 116.387 89.4108 117.273ZM95.3906 113.282C97.4025 117.222 96.1438 124.298 95.3906 128.522C92.6003 128.274 90.6339 128.932 88.0661 128.891C85.8217 122.75 84.8208 109.797 95.3906 113.282Z" fill="#00437C"/>
<path d="M98.7119 113.282C105.116 113.535 104.272 121.729 108.018 124.895C108.807 122.832 108.119 119.21 108.331 116.559C108.139 115.669 106.299 116.6 106.021 115.821V113.282H110.667V128.517C108.928 128.75 108.149 127.88 106.345 128.168C104.848 125.229 103.565 122.012 101.709 119.463C99.7734 123.494 103.838 124.142 103.024 128.168H100.36C100.845 125.73 99.3286 125.426 98.7119 124.192V113.282Z" fill="#00437C"/>
<path d="M115.651 125.649C116.556 126.483 117.835 126.898 119.65 126.711C120.863 124.678 120.261 119.913 119.993 117.268C114.559 114.572 115.596 121.213 115.651 125.649ZM120.641 129.625C118.406 129.645 116.617 129.154 114.666 128.881C112.841 127.035 111.183 115.558 114.666 114.01C116.197 113.322 118.31 114.708 120.641 114.739C123.613 116.731 123.557 127.601 120.641 129.625Z" fill="#00437C"/>
<path d="M84.7503 114.374V117.652C82.7586 118.638 82.2278 117.07 80.1048 117.278C78.6338 118.952 79.8015 123.489 79.4274 126.357C79.483 127.166 80.8478 126.519 81.4291 126.711V129.635C78.9724 129.731 77.3953 130.783 74.7819 130.712V127.819C75.1813 127.399 75.9496 127.399 76.7634 127.46V118.001C73.7911 117.278 74.3827 120.484 71.4609 119.807V116.2C75.5453 115.214 79.3921 114 84.7503 114.374Z" fill="#00437C"/>
<path d="M124.957 115.457C126.817 115.254 127.884 115.892 129.289 116.2C130.795 118.997 131.811 122.366 132.615 126.003C134.778 124.248 134.991 120.368 136.917 118.36C138.261 118.846 139.818 119.078 140.925 119.817V130.712C140.202 131.987 139.055 132.816 139.576 135.426C138.11 135.477 137.452 134.627 136.598 133.964C136.694 129.872 138.716 127.819 137.933 122.725C136.047 125.897 134.521 129.432 132.615 132.528C130.482 129.048 129.916 123.853 127.939 120.176C125.796 124.845 129.279 126.731 128.94 131.44C127.924 131.243 126.792 131.152 125.948 130.712C124.916 126.402 124.78 121.107 124.957 115.457Z" fill="#00437C"/>
<path d="M69.1455 116.913C68.458 121.476 70.0402 126.428 69.1455 129.989C68.1143 133.949 61.5582 136.443 59.152 132.533C59.2531 128.188 59.1267 124.096 58.8184 120.186C60.1933 119.513 61.639 118.881 63.479 118.744C62.8825 122.326 61.7553 127.227 62.8169 131.445C65.0461 131.592 65.779 130.07 66.8001 128.901C67.3764 123.661 66.0924 121.623 65.8144 117.996C66.7141 117.424 67.8161 117.055 69.1455 116.913Z" fill="#00437C"/>
<path d="M53.5111 124.895C52.2575 125.932 50.4882 126.438 48.8605 127.09C49.0678 128.547 48.436 130.934 49.2044 131.799C50.8371 130.934 52.3384 129.898 54.1733 129.26C53.8144 127.94 54.9265 125.052 53.5111 124.895ZM56.8169 121.992C57.0495 127.667 56.7108 132.755 56.17 137.621C55.2702 138.173 54.1733 138.567 52.859 138.709C52.4698 135.77 53.7386 134.597 54.1733 132.533C52.6569 132.331 50.1293 134.167 48.8605 135.426C50.7814 137.667 50.5591 142.057 47.1975 142.33C46.7022 137.313 45.7417 132.755 46.2067 126.716C48.815 124.131 51.9895 122.149 56.8169 121.992Z" fill="#00437C"/>
<path d="M145.894 129.26C147.613 130.049 149.144 131.026 151.222 131.445V127.09C149.397 126.402 147.76 125.563 145.894 124.895V129.26ZM153.552 126.003C153.835 132.113 153.376 137.414 152.541 142.331C151.707 141.931 150.929 141.445 150.241 140.869C149.857 138.304 150.722 137.06 150.883 135.067C149.771 133.742 147.81 133.337 146.243 132.528C145.616 134.066 147.633 135.836 146.89 138.714C145.616 138.653 145.374 137.48 143.897 137.621C143.281 133.074 142.209 127.141 143.25 121.997C147.835 122.068 150.53 124.212 153.552 126.003Z" fill="#00437C"/>
<path d="M59.1526 166.665C51.6612 182.937 57.3531 202.841 64.1519 212.411C71.5472 222.815 83.9469 230.974 100.042 230.924C124.659 230.843 146.86 209.249 143.898 179.017C142.816 167.732 135.284 156.964 130.27 152.138C121.788 143.939 109.247 138.658 93.4045 140.505C77.9669 142.331 64.5866 154.89 59.1526 166.665ZM95.0475 137.97C116.278 136.063 133.156 147.176 140.926 162.295C147.871 175.851 147.79 195.107 140.248 208.41C131.837 223.23 114.706 234.479 95.0475 232.719C79.2357 231.343 65.9918 221.101 58.824 208.061C54.6436 200.423 51.7321 186.832 53.8299 175.739C54.9268 170.049 57.2115 165.775 59.1526 162.295C65.8705 150.327 77.9215 139.503 95.0475 137.97Z" fill="#00437C"/>
<path d="M34.5803 150.681C36.1018 153.367 34.8127 159.149 35.2222 163.043H25.9414C28.4234 158.491 31.7698 154.89 34.5803 150.681Z" fill="#00437C"/>
<path d="M165.513 150.681C168.212 154.763 172.357 159.169 174.141 163.043H165.513V150.681Z" fill="#00437C"/>
<path d="M20.2646 209.148H29.5757V213.513C28.964 214.151 27.3818 213.751 26.2596 213.867C26.5326 215.476 27.1796 216.735 27.9176 217.858H37.8911C38.6392 217.342 38.0123 215.334 38.2297 214.211C38.078 213.417 36.5818 214.09 35.8994 213.867V209.148H42.8803C43.4312 212.568 43.4312 218.42 42.8803 221.869C41.3638 222.628 38.6088 222.006 36.5565 222.203C34.9036 229.451 37.7141 234.99 37.5574 241.814C34.201 237.878 31.355 233.336 28.2411 229.097V224.753C29.8537 224.707 29.6666 226.609 30.9 226.938V222.567H26.9321C23.5807 219.315 20.7348 215.532 20.2646 209.148Z" fill="#00437C"/>
<path d="M46.54 209.143C50.1947 213.609 54.8049 217.049 54.5067 225.85C53.895 227.712 52.7628 224.505 51.8327 224.388V245.096C52.1461 247.059 54.4359 246.851 53.8293 249.826C54.7088 251.282 56.6903 251.54 57.8125 252.724C58.3281 251.571 58.3484 249.876 60.4816 250.534V233.452C58.4091 231.981 57.7013 228.981 58.1562 224.753C60.8656 226.381 63.3022 228.308 65.1371 230.923V255.248C63.1758 256.123 62.2356 258.116 60.8304 259.613C56.3467 258.065 53.6017 254.656 49.1989 253.073C49.6438 249.785 48.4104 248.344 47.1972 246.902C47.6218 233.619 46.6209 221.864 46.54 209.143Z" fill="#00437C"/>
<path d="M142.896 230.2C142.108 233.179 143.609 236.493 143.574 240.372C144.832 237.701 149.579 235.84 150.555 232.365C151.343 229.527 150.261 225.825 150.226 222.203C148.866 225.102 143.857 226.609 142.896 230.2ZM155.21 209.143V244.363C154.831 245.152 154.199 245.673 153.86 246.508C154.993 250.59 153.704 254.064 150.555 254.52C149.341 249.725 150.605 245.936 150.555 240.716C148.083 241.54 145.692 245.587 143.245 247.625C143.857 251.186 146.025 253.068 145.217 258.156C143.463 258.89 141.971 259.932 140.248 260.686C139.611 258.389 140.354 254.52 138.251 253.796V228.01C142.699 221.627 148.836 217.049 151.869 209.143H155.21Z" fill="#00437C"/>
<path d="M158.517 209.143H163.501C166.564 213.19 168.798 218.132 171.488 222.568C173.439 220.838 174.323 217.904 174.475 214.212C173.878 213.417 171.872 214.166 171.159 213.508V209.143C174.581 209.169 178.185 208.956 181.117 209.508C180.627 214.839 179.1 220.716 176.462 225.486C176.042 226.295 172.741 231.586 172.15 231.647C170.709 231.804 168.626 227.611 167.838 226.204C166.306 223.549 165.568 221.895 164.168 220.039C163.4 224.156 164.062 229.836 163.839 234.56C167.621 238.627 164.026 245.026 160.529 246.508V239.993C160.084 238.774 158.951 238.314 158.517 237.094V209.143Z" fill="#00437C"/>
<path d="M134.93 242.901C133.384 243.164 132.064 243.655 130.947 244.358C130.179 243.26 130.826 240.605 130.624 238.925C128.753 239.886 126.64 240.615 125.614 242.557V261.075C126.307 261.889 128.5 261.308 129.294 261.075V266.148C125.321 266.548 122.258 267.919 118.31 268.338V263.23C119.371 263.417 119.488 262.587 120.65 262.871V247.63C118.467 249.376 114.043 251.768 114.999 258.156H110.354V252.355C114.291 247.337 118.537 242.653 122.298 237.459C125.69 236.902 131.645 229.669 134.263 233.104C135.704 234.97 134.551 238.956 134.93 242.901Z" fill="#00437C"/>
<path d="M85.4122 248.713C84.386 249.522 83.2183 250.185 82.4247 251.252C78.8357 248.865 78.8357 242.577 73.7909 241.814C73.6291 249.128 71.2028 262.066 78.765 262.147C79.4929 261.844 79.043 260.281 79.7558 259.962C81.985 259.719 83.1172 260.685 85.0987 260.69V265.43C82.1618 264.413 83.2537 267.752 81.7675 268.333C77.85 268.45 74.3875 265.349 70.1211 264.691C70.4092 262.572 69.2264 262.041 68.458 261.07V234.565C68.9433 234.358 69.277 233.994 69.4488 233.447C77.5923 235.476 82.0911 241.454 85.4122 248.713Z" fill="#00437C"/>
<path d="M115.322 240.003C115.1 244.864 109.105 243.361 107.027 246.184C107.371 246.791 109.984 246.791 110.343 246.184C110.894 248.839 107.947 250.822 104.348 250.17C104.12 252.127 104.727 253.159 105.02 254.515C105.667 255.026 106.921 254.884 107.674 255.248V257.812C106.623 258.323 104.889 258.116 103.357 258.162C102.21 255.167 100.031 253.604 100.355 250.544C100.799 246.705 105.829 244.125 107.027 241.09C110.09 241.05 112.4 240.21 115.322 240.003Z" fill="#00437C"/>
<path d="M96.0431 252.355C95.9875 248.288 93.4095 247.008 90.7355 245.83C91.9284 248.642 93.7481 250.736 96.0431 252.355ZM99.0407 247.995C99.1115 252.805 98.4391 256.796 95.3961 258.156C92.4289 253.154 88.7742 248.93 85.7412 243.999C89.1027 237.089 95.7854 245.041 99.0407 247.995Z" fill="#00437C"/>
<path d="M96.0433 267.974V278.485C98.96 279.082 104.091 279.082 107.033 278.485V267.974C104.091 267.362 98.96 267.362 96.0433 267.974ZM110.667 262.506C112.133 265.445 111.663 270.614 111.663 275.582C111.663 282.496 112.628 289.901 110.005 293.002V299.183C109.009 299.947 106.861 299.38 105.36 299.552C104.637 293.189 106.537 289.704 106.345 283.928H96.7056C96.013 285.941 95.9574 290.336 98.045 290.493V299.183C97.0492 299.947 94.9059 299.38 93.4046 299.552C93.7282 295.086 93.4047 291.317 91.0643 289.744C91.1806 280.908 90.7711 271.52 91.3878 263.235C96.6348 261.687 104.364 262.891 110.667 262.506Z" fill="#00437C"/>
<path d="M75.1211 15.235C80.5804 10.0808 83.6184 21.4363 87.081 24.3295C83.0371 22.802 77.5373 19.7216 75.1211 15.235Z" fill="#00437C"/>
<path d="M120.645 39.9288C120.362 39.8782 120.336 40.0856 120.321 40.298C122.702 38.6542 127.343 37.4453 131.953 35.943C134.45 35.1287 143.124 31.062 143.25 35.943C143.341 39.9288 136.123 38.9576 132.948 39.2257C128.146 39.6051 124.957 40.035 120.645 39.9288Z" fill="#00437C"/>
<path d="M81.0955 59.185C82.5513 59.185 81.1461 59.8072 80.4232 59.5593C66.9721 63.965 52.97 68.411 38.5534 72.9886C36.3444 73.6765 25.1782 78.5374 26.5733 71.5369C27.2355 68.3149 35.7582 68.3402 39.5493 67.5259C53.1116 64.6933 67.3511 61.6888 80.7567 59.185H81.0955Z" fill="#00437C"/>
<path d="M94.7136 222.203C93.92 222.441 92.3176 221.753 92.0598 222.567C92.6765 223.528 94.4962 223.564 94.7136 222.203ZM89.7193 219.659C91.3066 220.802 97.2663 221.035 98.3733 219.31ZM101.71 216.402C97.1602 216.644 91.7261 215.916 87.7378 216.761C90.3107 218.425 99.627 218.834 101.71 216.402ZM86.4286 214.586C91.7059 214.657 101.315 216.341 105.025 213.508C98.6007 213.726 91.2763 213.013 85.4126 213.857C85.9231 213.893 85.6754 214.793 86.4286 214.586ZM84.4319 212.026C92.0952 211.212 102.847 213.776 108.331 210.58H83.7646C83.527 211.586 84.4319 211.318 84.4319 212.026ZM103.352 208.061C103.777 209.664 109.823 209.411 111.005 207.676C108.554 207.889 105.293 207.246 103.352 208.061ZM95.7195 208.405C92.4187 206.816 86.4841 208.106 82.0864 207.676C84.0224 209.872 92.353 208.577 95.7195 208.405ZM64.8087 205.866H94.7136C96.5384 209.705 101.881 208.865 104.02 205.866H133.929C131.665 202.305 129.779 198.288 127.616 194.611H120.317C116.824 195.37 124.376 194.692 124.952 194.99C127.05 196.053 127.024 201.799 128.95 202.613C95.406 204.136 98.6311 205.223 99.0507 204.778C92.7877 197.687 79.8825 204.201 69.7828 202.224C70.9808 200.033 71.7947 197.403 73.1241 195.345C75.1309 195.481 76.8041 195.238 78.4368 194.99H81.0906C82.6526 195.238 82.6526 194.368 81.0906 194.611H69.1407C68.9335 194.626 68.7566 194.672 68.792 194.99C68.8779 198.688 66.1432 202.477 64.8087 205.866ZM112.325 193.165C118.254 192.274 125.513 195.127 129.299 192.072C123.85 192.704 116.126 190.757 112.325 193.165ZM96.043 192.79C97.2461 195.309 101.249 195.567 102.372 192.79C101.487 191.743 96.9074 191.561 96.043 192.79ZM85.1042 192.79C79.5287 191.384 70.2478 192.037 64.1516 192.436C69.7423 193.817 78.9474 193.21 85.1042 192.79ZM114.67 189.533C114.63 189.993 114.251 190.044 114.337 190.61H122.98C125.639 190.61 129.683 191.48 130.619 189.533C126.064 188.911 119.205 188.946 114.67 189.533ZM97.3927 189.892C97.9083 190.337 101.356 190.853 101.366 189.533C100.815 189.088 97.3977 188.567 97.3927 189.892ZM61.8112 190.61H83.7646C81.9246 188.061 77.2793 189.164 73.4527 189.164H61.4827C61.3967 189.846 61.8466 189.958 61.8112 190.61ZM116.642 186.614C116.586 187.075 116.141 187.383 117.001 187.353C121.535 186.705 128.91 188.708 131.619 186.25C126.726 186.493 120.989 185.79 116.642 186.614ZM97.706 186.994C96.8113 187.338 101.391 188.031 101.042 186.614C100.699 186.154 97.5291 185.694 97.706 186.994ZM82.0864 186.994C76.066 185.567 66.396 186.235 59.8297 186.614C65.8451 188.031 75.5251 187.388 82.0864 186.994ZM118.987 183.716C118.921 184.176 118.466 184.465 119.295 184.454C123.319 183.979 129.046 185.4 131.943 183.716C128.389 183.104 122.551 183.124 118.987 183.716ZM60.4969 184.07C66.0219 184.697 73.8873 184.697 79.4275 184.07C74.6354 182.902 65.2839 182.861 60.4969 184.07ZM120.645 181.167C122.45 181.531 130.249 182.254 132.61 180.823C129.486 180.443 123.228 179.756 120.645 181.167ZM70.7938 180.443H62.1498C61.887 180.529 61.7556 180.772 61.8112 181.167C65.2486 182.016 72.9927 181.318 78.1082 181.531C76.7586 179.589 73.574 180.443 70.7938 180.443ZM100.365 184.454C100.324 182.836 101.583 179.154 100.046 178.284C100.254 180.221 99.6016 183.109 100.365 184.454ZM98.7119 184.454V178.284H97.706C97.8425 180.539 97.3623 183.493 98.7119 184.454ZM121.641 178.284C124.639 178.648 130.831 179.341 133.282 177.909C130.26 177.53 124.098 176.827 121.641 178.284ZM92.0598 180.089C92.7877 180.044 92.1962 178.552 92.4035 177.909C91.8222 177.955 91.3469 177.838 91.0639 177.555C91.17 178.648 91.0185 180.044 92.0598 180.089ZM63.818 177.555C63.4743 177.555 63.4288 177.838 63.1558 177.909C63.0901 178.37 62.625 178.648 63.4742 178.643H76.7686C74.3574 176.205 67.8822 178.203 63.818 177.555ZM108.331 177.196C108.438 179.558 105.127 180.944 107.027 182.998C109.246 181.288 111.213 179.341 112.325 176.458C111.491 175.82 109.615 177.1 108.331 177.196ZM122.293 174.996V176.093H128.617C130.644 176.093 133.454 176.963 133.929 174.996C130.831 174.384 125.427 174.429 122.293 174.996ZM91.0639 181.895C90.7505 177.525 88.0663 175.755 84.7503 174.637C86.1607 177.813 88.2382 180.282 91.0639 181.895ZM64.4752 176.093C68.135 175.623 73.5285 177.024 76.1065 175.36C73.4021 174.161 66.3152 173.969 64.4752 176.093ZM122.637 172.841C125.316 173.21 131.139 173.888 133.282 172.462C130.583 172.082 124.77 171.389 122.637 172.841ZM68.792 173.2C70.8038 172.623 75.0399 174.444 75.4544 172.103C73.5841 171.41 69.4036 171.298 68.792 173.2ZM100.046 170.302V176.827C101.72 175.395 101.133 171.465 104.353 171.728C106.178 172.047 105.268 175.335 106.021 176.827C107.619 175.532 107.098 171.931 107.679 169.558C104.869 169.508 102.392 169.836 100.046 170.302ZM72.1384 171.01H75.4544C76.0509 168.415 72.4063 170.155 72.1384 171.01ZM132.954 169.558C130.366 169.179 124.664 168.506 122.637 169.933ZM91.0639 176.458C93.9957 175.775 91.893 172.28 94.3901 171.728C96.7204 171.248 97.0489 174.601 98.3733 176.827C99.1467 175.36 98.4743 172.35 98.7119 170.302C95.4111 170.363 93.4902 168.967 90.3865 168.835C90.7151 171.268 89.6788 175.163 91.0639 176.458ZM122.293 166.665V167.378C124.952 166.933 131.877 168.289 132.277 166.665C130.452 165.446 124.113 165.446 122.293 166.665ZM115.009 165.203C113.027 166.554 110.904 167.732 108.675 168.835V175.739C110.904 175.972 112.249 175.289 113.654 174.637C114.63 172.517 116.52 167.667 115.009 165.203ZM89.4109 175.36C89.5323 172.699 89.32 170.363 89.0723 168.102C86.8987 166.832 84.6492 165.669 82.4301 164.475C82.3795 170.707 84.2853 174.788 89.4109 175.36ZM122.293 164.475C124.75 165.315 128.617 164.611 131.619 164.839C130.548 162.937 123.88 163.413 122.293 164.475ZM122.293 162.664C123.997 162.421 126.509 163.14 127.616 162.3C126.383 162.214 122.925 161.056 122.293 162.664ZM117.658 163.392H118.987C118.921 162.856 119.109 162.047 118.659 161.926C118.74 162.892 117.36 162.219 117.658 163.392ZM79.4275 163.392C79.938 163.327 80.6761 163.514 80.762 163.033C80.1706 162.699 80.216 161.693 79.4275 161.572V163.392ZM89.4109 181.895C83.7242 179.027 82.8649 170.894 80.762 164.106C78.3913 164.096 79.5691 167.844 80.762 168.102H79.4275C78.5934 174.227 82.1773 177.449 82.4301 181.167C79.4275 178.132 78.1082 173.311 78.4368 166.665C77.9414 166.604 77.2085 166.792 77.1125 166.296C77.1731 165.153 78.8967 165.83 78.7703 164.475C78.8158 162.856 78.9321 161.162 77.446 161.212C73.9075 176.528 81.495 185.759 87.0908 193.524C89.8205 193.129 92.4136 192.568 95.7195 192.79C96.0835 187.702 97.605 181.415 96.043 176.458C95.9773 177.004 93.8795 177.919 94.0615 176.458C94.2031 175.638 95.8206 176.458 96.043 175.739C96.2048 173.863 95.6033 172.851 94.0615 172.841C92.7624 176.852 94.3091 183.989 90.3865 185.163C90.3865 184.323 90.9729 184.111 90.7404 182.998C89.4109 182.436 88.6932 184.368 88.0664 183.352C88.9156 183.311 89.3654 182.831 89.4109 181.895ZM109.681 181.895C110.369 184.601 110.333 182.952 108.018 182.998C107.027 183.514 108.903 184.879 107.351 184.798H106.35C105.855 180.985 104.646 177.985 105.025 173.2C104.126 173.458 104.353 172.467 103.681 172.462C103.064 173.099 102.215 173.514 102.372 174.996C102.508 176.205 104.141 175.739 104.692 176.458C103.565 177.211 103.221 176.928 101.71 176.827C100.774 183.402 102.559 186.984 103.029 192.79C105.764 192.714 107.781 193.428 110.667 193.165C116.278 185.446 125.513 176.432 120.984 161.212C118.755 160.954 119.801 165.841 121.312 166.665C120.681 166.741 120.589 166.24 119.993 166.296C120.231 173.099 119.134 178.435 115.656 181.167C116.672 176.827 119.634 174.637 118.659 168.102C117.84 168.177 117.036 168.177 117.001 167.378C118.012 167.651 118.209 167.009 118.987 167.009C118.947 165.729 119.225 164.096 117.986 164.106H117.001C116.091 171.728 114.301 178.365 109.681 181.895ZM99.7077 161.212V169.214C102.574 169.305 104.652 168.557 107.027 168.102C106.861 165.259 106.219 162.942 106.021 160.13C104.05 160.621 101.583 160.6 99.7077 161.212ZM90.7404 167.378C93.3285 167.94 95.6386 168.8 98.7119 168.835V161.212C96.4423 160.641 94.4154 159.842 92.0598 159.417C91.8374 162.285 90.801 164.313 90.7404 167.378ZM111.349 156.498C110.096 157.677 108.928 158.967 107.027 159.417C107.962 161.511 108.2 164.394 108.331 167.378C111.036 166.437 113.3 165.031 115.327 163.392C114.428 160.61 113.685 157.677 111.349 156.498ZM82.4301 163.033C85.0485 164.04 86.8481 165.932 89.7193 166.665C89.6384 163.645 90.7404 161.926 90.7404 159.017C89.2694 157.611 87.6316 156.382 85.7461 155.416C84.6492 157.945 83.6281 160.6 82.4301 163.033ZM113.007 155.76C114.109 157.702 115.302 159.533 115.995 161.926C117.4 161.885 117.905 160.868 118.659 160.13C116.546 158.547 116.015 155.229 113.998 153.585C113.862 154.536 113.007 154.687 113.007 155.76ZM79.7612 160.13C80.1302 161.177 81.1259 161.541 82.0864 161.926C81.8134 157.965 85.6349 156.68 84.7503 153.236C82.7587 153.711 80.6811 157.232 79.7612 160.13ZM100.046 152.507V159.417C101.517 159.907 103.777 159.144 105.359 158.668C104.394 155.38 104.338 150.11 100.046 152.507ZM92.7321 158.324C94.5569 158.855 96.144 159.66 98.7119 159.417V152.128C97.1196 152.28 95.9772 151.961 95.0471 151.41C94.1625 153.585 93.3589 155.841 92.7321 158.324ZM106.35 158.324C108.2 157.677 109.99 156.933 110.667 155.052C109.393 152.831 106.744 149.432 104.02 151.051M87.4092 154.687C88.5011 155.745 90.1894 157.788 91.7261 157.222C92.4389 154.95 94.0412 152.163 93.7379 149.953C91.1346 149.604 88.5971 152.31 87.4092 154.687ZM106.35 149.604C108.953 149.822 110.849 155.628 113.007 152.867C112.037 151.364 109.327 148.643 106.35 148.132C106.38 149.123 105.799 148.876 106.35 149.604ZM104.353 149.953C104.247 148.724 102.65 147.252 101.71 148.132C103.085 148.193 102.427 150.499 104.353 149.953ZM85.4126 152.507C88.2838 153.039 90.3108 149.665 92.4035 148.132C89.8002 147.844 86.459 149.862 85.4126 152.507ZM100.046 151.051H102.705C102.392 149.184 100.886 148.688 100.046 147.419C99.9251 149.098 99.6269 149.503 100.046 151.051ZM95.7195 150.676C96.8114 150.707 97.3724 151.288 98.7119 151.051C98.7524 149.548 98.6159 148.248 98.0447 147.419C97.8274 149.103 95.8409 148.876 95.7195 150.676ZM96.043 147.419C95.6032 148.228 93.4903 148.431 94.3901 149.604ZM105.359 148.132C105.41 146.959 103.044 146.569 102.705 147.045C103.625 147.363 104.05 148.228 105.359 148.132ZM119.649 160.484C130.861 160.236 136.088 163.337 135.264 176.827C135.148 178.789 134.592 181.662 133.929 184.07C132.585 189.088 132.019 192.406 129.299 194.611C131.245 199.244 134.592 202.355 136.27 207.332C128.414 208.415 121.408 205.79 115.009 207.332C111.324 208.192 106.694 213.751 103.681 216.402C99.824 219.811 96.3412 223.023 93.0656 225.85C87.9955 220.246 83.5776 213.913 79.4275 207.332H62.4784C64.1314 203.321 66.0827 199.634 67.7862 195.684C63.5552 193.478 58.4345 191.354 58.1666 185.901C57.7268 177.009 69.1661 169.477 76.1065 168.456C76.0812 165.785 76.0407 163.074 76.4451 160.833C76.8394 160.418 77.6129 160.439 78.4368 160.484C81.404 146.316 102.311 139.731 113.654 151.051C116.278 153.64 117.683 157.09 119.649 160.484Z" fill="#00437C"/>
</svg>
