<svg width="36" height="25" viewBox="0 0 36 25" fill="none" xmlns="http://www.w3.org/2000/svg">
<path d="M34.6055 3.89426C34.4091 3.13742 34.0154 2.44627 33.4644 1.89145C32.9134 1.33663 32.2251 0.938004 31.4696 0.736317C26.8895 0.196137 22.2792 -0.0472877 17.6675 0.00756725C13.056 -0.0472877 8.44566 0.196137 3.86548 0.736317C3.11006 0.938004 2.4217 1.33663 1.87076 1.89145C1.31981 2.44627 0.926038 3.13742 0.729651 3.89426C0.22794 6.70754 -0.0159923 9.56079 0.000901431 12.4184C-0.0168315 15.2908 0.227101 18.1587 0.729651 20.9867C0.936219 21.7314 1.33451 22.4087 1.88479 22.9512C2.43504 23.4938 3.11801 23.8825 3.86548 24.0784C8.44566 24.6185 13.056 24.8621 17.6675 24.8071C22.2792 24.8621 26.8895 24.6185 31.4696 24.0784C32.2172 23.8825 32.9002 23.4938 33.4503 22.9512C34.0006 22.4087 34.399 21.7314 34.6055 20.9867C35.1081 18.1587 35.3519 15.2908 35.3342 12.4184C35.3512 9.56079 35.1072 6.70754 34.6055 3.89426ZM14.0459 17.6963V7.18465L23.2988 12.4184L14.0459 17.6742V17.6963Z" fill="white"/>
</svg>
