<svg width="24" height="24" viewBox="0 0 24 24" fill="none" xmlns="http://www.w3.org/2000/svg">
<path d="M21.0908 1.25171C21.4996 0.915919 22.0922 0.915963 22.501 1.25171L22.5859 1.32886L22.6611 1.41284C23.0141 1.84845 22.989 2.48863 22.5859 2.89526L13.5205 12.033L22.4277 21.0105C22.8576 21.4441 22.8577 22.1434 22.4277 22.5769C21.9927 23.0154 21.2837 23.0152 20.8486 22.5769L11.9541 13.6121L3.05957 22.5769C2.62447 23.0152 1.91545 23.0154 1.48047 22.5769C1.0505 22.1434 1.05065 21.4441 1.48047 21.0105L10.3877 12.033L1.32227 2.89526C0.892487 2.46165 0.892328 1.76239 1.32227 1.32886L1.40723 1.25171C1.81602 0.915959 2.40861 0.915923 2.81738 1.25171L2.90234 1.32886L11.9541 10.4529L21.0059 1.32886L21.0908 1.25171Z" fill="black" stroke="black" stroke-width="2"/>
</svg>
