<svg width="703" height="340" viewBox="0 0 703 340" fill="none" xmlns="http://www.w3.org/2000/svg">
<g clip-path="url(#clip0_70_206)">
<path d="M651.934 305.946C651.934 303.897 651.797 296.694 651.727 295.051C651.56 291.722 651.378 291.454 651.378 291.454C651.797 291.313 652.414 291.176 653.137 291.176C653.86 291.176 654.583 291.242 654.926 291.758C655.846 293.128 657.115 294.808 658.556 296.527L665.228 304.545C666.977 306.669 668.317 308.389 668.656 309.107L668.797 308.97C668.655 306.259 668.691 298.576 668.519 295.051C668.352 291.722 668.175 291.419 668.175 291.419C668.175 291.419 668.767 291.105 669.449 291.105C670.925 291.105 671.031 291.828 671.031 293.063C671.031 297.21 670.859 301.186 670.859 306.568C670.859 310.407 670.895 314.211 671.168 315.445C671.168 315.445 670.41 315.647 669.485 315.647C668.964 315.647 668.317 315.409 667.867 314.721C667.013 313.386 665.668 311.677 664.091 309.785L657.292 301.667C655.503 299.507 654.198 297.832 654.027 297.175L653.89 297.311C653.89 302.658 654.198 307.802 654.198 313.422C654.198 315.273 654.128 315.758 652.93 315.758C652.212 315.758 651.418 315.409 651.418 315.409C651.418 315.409 651.934 314.489 651.934 305.946Z" fill="#00437C"/>
<path d="M633.049 289.633C635.905 288.055 637.411 284.701 637.795 283.847C639.64 283.882 640.434 285.486 640.434 285.486C639.853 287.782 636.142 289.947 634.12 289.947C633.878 289.947 633.291 289.911 633.049 289.805V289.633ZM636.314 305.713C637.517 305.713 638.715 305.678 639.853 305.642C638.614 302.01 637.28 298.141 636.178 295.329H636.011C634.53 299.582 633.498 302.936 632.644 305.642C633.741 305.678 635.005 305.713 636.314 305.713ZM626.285 315.273C626.285 315.273 627.246 314.555 628.514 310.994L635.697 291.009C635.697 291.009 639.201 291.146 640.399 295.152C641.703 299.471 644.761 308.692 646.485 312.501C647.44 314.656 647.652 315.07 648.062 315.273V315.445C648.062 315.445 646.752 315.789 645.554 315.789C644.048 315.789 642.805 315.202 642.39 313.73C641.95 312.182 641.298 309.962 640.469 307.463C639.403 307.428 638.2 307.387 637.032 307.387C635.283 307.387 633.534 307.463 632.093 307.524C630.026 313.765 630.203 315.789 627.519 315.789C626.942 315.789 626.285 315.445 626.285 315.445V315.273Z" fill="#00437C"/>
<path d="M615.341 302.835C615.341 299.987 615.266 297.281 615.164 295.091C615.129 294.605 615.094 294.19 615.094 293.852C612.895 293.821 612.076 293.821 611.52 293.821C609.771 293.821 608.259 294.029 607.542 294.125C607.542 294.125 607.436 293.371 607.436 292.754C607.436 292.066 607.577 291.287 608.229 291.287C608.229 291.287 619.764 291.454 623.232 291.454C624.915 291.454 626.396 291.211 626.973 291.105C626.973 291.105 627.119 291.97 627.119 292.82C627.119 293.583 626.841 293.953 626.467 293.953C626.467 293.953 623.202 293.922 619.426 293.887C619.385 296.664 619.284 299.233 619.284 301.914C619.284 306.401 619.284 310.892 619.866 315.445C619.006 315.581 618.288 315.789 617.571 315.789C616.368 315.789 615.341 315.313 615.341 313.457V302.835Z" fill="#00437C"/>
<path d="M596.588 305.713C597.786 305.713 598.994 305.677 600.132 305.642C598.888 302.01 597.549 298.141 596.457 295.328H596.275C594.804 299.582 593.773 302.936 592.913 305.642C594.015 305.677 595.284 305.713 596.588 305.713ZM586.564 315.273C586.564 315.273 587.52 314.554 588.794 310.993L595.966 291.009C595.966 291.009 599.475 291.145 600.673 295.151C601.982 299.471 605.04 308.692 606.754 312.501C607.714 314.656 607.921 315.07 608.341 315.273V315.445C608.341 315.445 607.032 315.789 605.824 315.789C604.317 315.789 603.084 315.202 602.669 313.73C602.219 312.182 601.572 309.962 600.748 307.463C599.682 307.428 598.479 307.387 597.311 307.387C595.557 307.387 593.803 307.463 592.357 307.524C590.31 313.765 590.477 315.789 587.798 315.789C587.211 315.789 586.564 315.445 586.564 315.445V315.273Z" fill="#00437C"/>
<path d="M576.464 290.933C579.588 290.933 584.158 292.177 584.158 294.196C584.158 294.949 583.435 296.244 582.783 296.937H582.576C580.827 294.231 578.142 292.86 575.605 292.86C571.794 292.86 568.255 296.047 568.255 302.622C568.255 307.837 571.071 312.941 576.778 312.941C579.457 312.941 582.237 312.122 584.608 310.129L584.704 310.24C584.057 313.32 580.281 315.961 575.878 315.961C567.745 315.961 564.029 310.24 564.029 304.271C564.029 297.585 568.629 290.933 576.464 290.933Z" fill="#00437C"/>
<path d="M539.311 291.419C539.311 291.419 540.584 291.11 541.201 291.11C542.743 291.11 543.916 291.899 543.916 293.24C543.916 295.632 543.88 302.385 543.88 305.263C543.88 310.852 546.322 313.902 550.27 313.902C554.152 313.902 556.624 310.852 556.624 305.263C556.624 300.225 556.624 295.465 556.244 291.419C556.244 291.419 557.276 291.11 557.791 291.11C559.095 291.11 559.126 291.899 559.126 293.24C559.126 296.214 558.858 301.94 558.858 304.818C558.858 311.884 556.007 315.961 549.41 315.961C543.779 315.961 539.73 312.804 539.73 305.03C539.73 292.233 539.311 291.727 539.311 291.419Z" fill="#00437C"/>
<path d="M523.353 303.998C521.705 302.319 517.99 296.006 516.271 293.538C515.589 292.546 514.593 291.621 514.593 291.621V291.454C514.593 291.454 515.553 291.176 517.201 291.176C519.541 291.176 519.875 291.692 520.573 292.961C521.973 295.5 524.485 299.34 526.128 301.565H526.31C531.279 293.786 531.552 291.176 534.241 291.176C535.131 291.176 536.162 291.454 536.162 291.454V291.621C536.162 291.621 534.999 292.546 533.998 293.851C532.381 295.905 528.125 302.39 527.301 303.927C527.301 307.771 527.367 311.58 527.887 315.445C527.028 315.581 526.31 315.789 525.577 315.789C524.379 315.789 523.353 315.313 523.353 313.452V303.998Z" fill="#00437C"/>
<path d="M494.095 305.713C495.298 305.713 496.501 305.677 497.639 305.642C496.395 302.01 495.061 298.141 493.964 295.328H493.792C492.311 299.582 491.28 302.936 490.425 305.642C491.522 305.677 492.791 305.713 494.095 305.713ZM484.066 315.273C484.066 315.273 485.027 314.554 486.306 310.993L493.484 291.009C493.484 291.009 496.982 291.145 498.18 295.151C499.484 299.471 502.547 308.692 504.261 312.501C505.221 314.656 505.433 315.07 505.838 315.273V315.445C505.838 315.445 504.539 315.789 503.336 315.789C501.829 315.789 500.586 315.202 500.171 313.73C499.737 312.182 499.074 309.962 498.25 307.463C497.189 307.428 495.986 307.387 494.813 307.387C493.064 307.387 491.315 307.463 489.875 307.524C487.817 313.765 487.984 315.789 485.3 315.789C484.724 315.789 484.066 315.445 484.066 315.445V315.273Z" fill="#00437C"/>
<path d="M471.808 303.042C474.25 303.042 476.241 301.803 476.241 298.348C476.241 295.597 474.624 293.27 470.064 293.27H468.993C468.897 296.148 468.861 300.129 468.861 302.658C469.852 303.002 470.848 303.042 471.808 303.042ZM464.908 305.956C464.908 303.108 464.837 297.246 464.736 295.055C464.564 291.722 464.393 291.388 464.393 291.388C464.393 291.388 465.742 291.454 467.137 291.454H471.399C477.343 291.454 480.3 294.191 480.3 297.62C480.3 303.69 474.73 304.509 474.73 304.509V304.681C474.73 304.681 480.538 313.325 483.414 314.969V315.202C483.414 315.202 481.392 315.647 480.396 315.647C474.972 315.647 472.329 305.298 469.341 304.448L468.861 304.307C468.861 305.131 469.028 309.689 469.028 313.457C469.028 315.313 467.997 315.789 466.799 315.789C466.081 315.789 465.318 315.581 464.468 315.445C464.468 315.445 464.908 314.484 464.908 305.956Z" fill="#00437C"/>
<path d="M438.396 291.419C438.396 291.419 439.669 291.11 440.291 291.11C441.838 291.11 443 291.899 443 293.24C443 295.632 442.965 302.385 442.965 305.263C442.965 310.852 445.402 313.902 449.355 313.902C453.237 313.902 455.708 310.852 455.708 305.263C455.708 300.225 455.708 295.465 455.334 291.419C455.334 291.419 456.366 291.11 456.876 291.11C458.18 291.11 458.211 291.899 458.211 293.24C458.211 296.214 457.948 301.94 457.948 304.818C457.948 311.884 455.092 315.961 448.495 315.961C442.864 315.961 438.815 312.804 438.815 305.03C438.815 292.233 438.396 291.727 438.396 291.419Z" fill="#00437C"/>
<path d="M423.331 302.835C423.331 299.987 423.266 297.281 423.16 295.091C423.124 294.605 423.094 294.19 423.094 293.852C420.89 293.821 420.066 293.821 419.52 293.821C417.771 293.821 416.255 294.029 415.532 294.125C415.532 294.125 415.436 293.371 415.436 292.754C415.436 292.066 415.567 291.287 416.224 291.287C416.224 291.287 427.759 291.454 431.232 291.454C432.915 291.454 434.391 291.211 434.973 291.105C434.973 291.105 435.114 291.97 435.114 292.82C435.114 293.583 434.836 293.953 434.452 293.953C434.452 293.953 431.197 293.922 427.421 293.887C427.385 296.664 427.284 299.233 427.284 301.914C427.284 306.401 427.284 310.892 427.866 315.445C427.011 315.581 426.283 315.789 425.566 315.789C424.357 315.789 423.331 315.313 423.331 313.457V302.835Z" fill="#00437C"/>
<path d="M405.139 290.933C408.263 290.933 412.828 292.177 412.828 294.195C412.828 294.949 412.11 296.244 411.458 296.937H411.251C409.502 294.231 406.817 292.86 404.275 292.86C400.468 292.86 396.93 296.047 396.93 302.622C396.93 307.837 399.746 312.941 405.447 312.941C408.122 312.941 410.907 312.122 413.283 310.129L413.379 310.24C412.732 313.32 408.945 315.961 404.553 315.961C396.419 315.961 392.704 310.24 392.704 304.271C392.704 297.584 397.304 290.933 405.139 290.933Z" fill="#00437C"/>
<path d="M374.708 305.951C374.708 303.897 374.577 296.699 374.501 295.055C374.329 291.727 374.157 291.454 374.157 291.454H380.476C385.728 291.454 388.063 291.105 388.063 291.105C387.861 292.789 387.765 293.953 385.288 293.953C381.204 293.953 378.757 293.412 378.757 293.412C378.757 294.813 378.727 298.449 378.696 301.838H383.979C385.389 301.838 386.006 301.499 386.006 301.499C385.94 303.108 385.728 304.034 383.943 304.034C382.164 304.034 378.656 303.826 378.656 303.826V307.392C378.656 309.244 378.757 311.095 378.793 313.189L385.076 313.017C387.31 312.946 388.821 312.708 389.686 312.258C389.716 312.637 389.716 312.946 389.716 313.224C389.716 315.414 388.963 315.617 386.456 315.617L374.329 315.45C374.329 315.45 374.708 314.494 374.708 305.951Z" fill="#00437C"/>
<path d="M355.621 305.951C355.621 303.108 355.515 297.246 355.419 295.055C355.242 291.727 355.07 291.419 355.07 291.419C355.621 291.247 356.066 291.105 356.617 291.105C358.164 291.105 359.67 291.899 359.67 293.24C359.67 297.215 359.503 300.366 359.503 303.007C359.503 307.428 359.503 309.866 359.569 313.189L365.852 313.017C368.087 312.946 369.598 312.708 370.457 312.258C370.488 312.637 370.488 312.946 370.488 313.224C370.488 315.414 369.73 315.617 367.227 315.617L355.242 315.45C355.242 315.45 355.621 314.494 355.621 305.951Z" fill="#00437C"/>
<path d="M331.863 305.713C333.066 305.713 334.264 305.677 335.401 305.642C334.163 302.01 332.828 298.141 331.726 295.328H331.56C330.078 299.582 329.042 302.936 328.183 305.642C329.285 305.677 330.559 305.713 331.863 305.713ZM321.834 315.273C321.834 315.273 322.794 314.554 324.063 310.993L331.246 291.009C331.246 291.009 334.749 291.145 335.942 295.151C337.251 299.471 340.315 308.692 342.028 312.501C342.984 314.656 343.201 315.07 343.61 315.273V315.445C343.61 315.445 342.301 315.789 341.103 315.789C339.587 315.789 338.348 315.202 337.944 313.73C337.499 312.182 336.842 309.962 336.018 307.463C334.951 307.427 333.748 307.387 332.581 307.387C330.832 307.387 329.078 307.463 327.642 307.524C325.58 313.765 325.751 315.789 323.067 315.789C322.481 315.789 321.834 315.445 321.834 315.445V315.273Z" fill="#00437C"/>
<path d="M306.174 305.951C306.174 303.108 306.073 297.246 305.972 295.055C305.795 291.727 305.623 291.419 305.623 291.419C306.174 291.247 306.619 291.105 307.17 291.105C308.712 291.105 310.223 291.899 310.223 293.24C310.223 297.215 310.056 300.366 310.056 303.007C310.056 307.428 310.056 309.866 310.127 313.189L316.405 313.017C318.644 312.946 320.156 312.708 321.015 312.258C321.04 312.637 321.04 312.946 321.04 313.224C321.04 315.414 320.287 315.617 317.785 315.617L305.795 315.45C305.795 315.45 306.174 314.494 306.174 305.951Z" fill="#00437C"/>
<path d="M278.089 305.951C278.089 303.897 277.947 296.699 277.887 295.055C277.71 291.727 277.543 291.454 277.543 291.454H283.857C289.114 291.454 291.449 291.105 291.449 291.105C291.247 292.789 291.136 293.953 288.669 293.953C284.579 293.953 282.143 293.412 282.143 293.412C282.143 294.813 282.108 298.449 282.072 301.838H287.36C288.775 301.838 289.387 301.499 289.387 301.499C289.321 303.108 289.114 304.034 287.329 304.034C285.545 304.034 282.042 303.826 282.042 303.826V307.392C282.042 309.244 282.143 311.095 282.173 313.189L288.462 313.017C290.696 312.946 292.202 312.708 293.062 312.258C293.102 312.637 293.102 312.946 293.102 313.224C293.102 315.414 292.349 315.617 289.841 315.617L277.71 315.45C277.71 315.45 278.089 314.494 278.089 305.951Z" fill="#00437C"/>
<path d="M259.689 313.73C264.971 313.73 268.035 309.345 268.035 304.064C268.035 296.072 262.191 293.27 256.631 293.27C256.08 293.27 255.498 293.27 254.947 293.3C254.947 293.3 254.846 301.601 254.846 305.814C254.846 307.908 254.877 309.997 254.947 312.122C254.983 313.528 257.869 313.73 259.689 313.73ZM250.899 305.951C250.899 303.892 250.757 296.694 250.681 295.055C250.514 291.717 250.348 291.454 250.348 291.454H257.975C265.077 291.454 272.468 294.12 272.468 303.417C272.468 310.508 267.413 315.753 260.791 315.753C257.763 315.753 256.146 315.445 250.514 315.445C250.514 315.445 250.899 314.484 250.899 305.951Z" fill="#00437C"/>
<path d="M613.103 264.833C613.103 261.985 612.997 256.128 612.895 253.933C612.724 250.61 612.552 250.296 612.552 250.296C613.103 250.129 613.548 249.988 614.099 249.988C615.64 249.988 617.157 250.777 617.157 252.117C617.157 256.088 616.985 259.244 616.985 261.889C616.985 266.305 616.985 268.743 617.051 272.056L623.334 271.894C625.568 271.818 627.08 271.581 627.944 271.136C627.969 271.52 627.969 271.818 627.969 272.092C627.969 274.292 627.216 274.499 624.714 274.499L612.724 274.327C612.724 274.327 613.103 273.366 613.103 264.833Z" fill="#00437C"/>
<path d="M597.478 264.595C598.686 264.595 599.884 264.555 601.021 264.525C599.783 260.888 598.438 257.018 597.347 254.206H597.17C595.694 258.455 594.662 261.803 593.803 264.525C594.9 264.555 596.174 264.595 597.478 264.595ZM587.454 274.155C587.454 274.155 588.41 273.437 589.683 269.871L596.866 249.887C596.866 249.887 600.364 250.023 601.567 254.034C602.872 258.349 605.93 267.575 607.643 271.378C608.609 273.533 608.811 273.948 609.22 274.155V274.322C609.22 274.322 607.926 274.666 606.723 274.666C605.207 274.666 603.968 274.085 603.559 272.608C603.109 271.065 602.462 268.839 601.638 266.341C600.567 266.305 599.374 266.27 598.201 266.27C596.452 266.27 594.703 266.341 593.252 266.401C591.2 272.643 591.367 274.666 588.687 274.666C588.101 274.666 587.454 274.322 587.454 274.322V274.155Z" fill="#00437C"/>
<path d="M564.657 264.833C564.657 262.774 564.52 255.577 564.449 253.928C564.283 250.61 564.101 250.337 564.101 250.337C564.52 250.195 565.132 250.058 565.855 250.058C566.572 250.058 567.3 250.124 567.649 250.635C568.574 252.011 569.838 253.685 571.278 255.405L577.951 263.422C579.7 265.551 581.04 267.266 581.378 267.979L581.52 267.848C581.378 265.137 581.414 257.464 581.242 253.928C581.075 250.61 580.898 250.296 580.898 250.296C580.898 250.296 581.484 249.988 582.172 249.988C583.648 249.988 583.749 250.706 583.749 251.94C583.749 256.088 583.577 260.063 583.577 265.445C583.577 269.284 583.613 273.093 583.885 274.322C583.885 274.322 583.132 274.53 582.202 274.53C581.687 274.53 581.04 274.287 580.59 273.604C579.73 272.264 578.391 270.554 576.814 268.667L570.015 260.544C568.225 258.384 566.916 256.71 566.749 256.052L566.608 256.184C566.608 261.535 566.916 266.679 566.916 272.304C566.916 274.155 566.856 274.636 565.647 274.636C564.93 274.636 564.141 274.287 564.141 274.287C564.141 274.287 564.657 273.366 564.657 264.833Z" fill="#00437C"/>
<path d="M547.146 272.957C552.059 272.957 554.668 267.367 554.668 261.884C554.668 256.811 551.877 251.702 546.635 251.702C541.722 251.702 539.139 256.912 539.139 262.087C539.139 267.575 541.96 272.957 547.146 272.957ZM547.146 249.821C555.077 249.821 559.101 255.339 559.101 261.055C559.101 268.086 554.834 274.833 546.666 274.833C538.729 274.833 534.716 269.047 534.716 262.906C534.716 256.159 538.967 249.821 547.146 249.821Z" fill="#00437C"/>
<path d="M525.274 261.712C525.274 258.865 525.203 256.128 525.102 253.928C524.925 250.6 524.758 250.296 524.758 250.296C525.344 250.119 526.097 249.988 526.648 249.988C528.195 249.988 529.358 250.777 529.358 252.117C529.358 255.096 529.221 257.909 529.221 260.782C529.221 265.278 529.221 269.694 529.813 274.251C528.948 274.388 528.231 274.595 527.503 274.595C526.305 274.595 525.274 274.12 525.274 272.264V261.712Z" fill="#00437C"/>
<path d="M511.883 249.821C515.007 249.821 519.572 251.05 519.572 253.078C519.572 253.827 518.854 255.127 518.202 255.815H517.99C516.241 253.108 513.556 251.738 511.019 251.738C507.213 251.738 503.674 254.929 503.674 261.51C503.674 266.715 506.49 271.818 512.192 271.818C514.866 271.818 517.651 270.999 520.017 269.011L520.123 269.117C519.476 272.203 515.69 274.833 511.297 274.833C503.159 274.833 499.448 269.117 499.448 263.149C499.448 256.462 504.048 249.821 511.883 249.821Z" fill="#00437C"/>
<path d="M485.785 264.595C486.993 264.595 488.191 264.555 489.328 264.525C488.085 260.888 486.75 257.018 485.648 254.206H485.482C484 258.455 482.974 261.803 482.115 264.525C483.212 264.555 484.481 264.595 485.785 264.595ZM475.756 274.155C475.756 274.155 476.716 273.437 477.985 269.871L485.168 249.887C485.168 249.887 488.671 250.023 489.869 254.034C491.173 258.349 494.237 267.575 495.955 271.378C496.911 273.533 497.123 273.948 497.537 274.155V274.322C497.537 274.322 496.228 274.666 495.025 274.666C493.519 274.666 492.275 274.085 491.871 272.608C491.426 271.065 490.769 268.839 489.945 266.341C488.878 266.305 487.675 266.27 486.513 266.27C484.754 266.27 483.005 266.341 481.564 266.401C479.507 272.643 479.673 274.666 476.994 274.666C476.413 274.666 475.756 274.322 475.756 274.322V274.155Z" fill="#00437C"/>
<path d="M452.958 264.833C452.958 262.774 452.817 255.577 452.746 253.928C452.579 250.61 452.412 250.337 452.412 250.337C452.817 250.195 453.438 250.058 454.156 250.058C454.884 250.058 455.597 250.124 455.946 250.635C456.876 252.011 458.144 253.685 459.585 255.405L466.248 263.422C468.002 265.551 469.346 267.266 469.685 267.979L469.826 267.848C469.685 265.137 469.72 257.464 469.548 253.928C469.371 250.61 469.199 250.296 469.199 250.296C469.199 250.296 469.786 249.988 470.473 249.988C471.949 249.988 472.056 250.706 472.056 251.94C472.056 256.088 471.884 260.063 471.884 265.445C471.884 269.284 471.919 273.093 472.187 274.322C472.187 274.322 471.434 274.53 470.504 274.53C469.993 274.53 469.346 274.287 468.891 273.604C468.037 272.264 466.697 270.554 465.115 268.667L458.316 260.544C456.527 258.384 455.223 256.71 455.056 256.052L454.909 256.184C454.909 261.535 455.223 266.679 455.223 272.304C455.223 274.155 455.152 274.636 453.954 274.636C453.236 274.636 452.448 274.287 452.448 274.287C452.448 274.287 452.958 273.366 452.958 264.833Z" fill="#00437C"/>
<path d="M437.308 261.915C439.745 261.915 441.736 260.681 441.736 257.221C441.736 254.474 440.129 252.148 435.554 252.148H434.493C434.392 255.026 434.361 259.006 434.361 261.54C435.352 261.879 436.348 261.915 437.308 261.915ZM430.403 264.833C430.403 261.986 430.332 256.128 430.236 253.928C430.059 250.605 429.888 250.261 429.888 250.261C429.888 250.261 431.227 250.332 432.643 250.332H436.894C442.838 250.332 445.79 253.073 445.79 256.503C445.79 262.572 440.225 263.397 440.225 263.397V263.564C440.225 263.564 446.033 272.198 448.919 273.842V274.085C448.919 274.085 446.887 274.535 445.897 274.535C440.468 274.535 437.824 264.176 434.836 263.321L434.361 263.184C434.361 264.009 434.528 268.566 434.528 272.334C434.528 274.191 433.497 274.666 432.294 274.666C431.576 274.666 430.823 274.459 429.958 274.322C429.958 274.322 430.403 273.361 430.403 264.833Z" fill="#00437C"/>
<path d="M410.456 264.833C410.456 262.775 410.315 255.582 410.249 253.933C410.072 250.61 409.905 250.337 409.905 250.337H416.229C421.476 250.337 423.816 249.988 423.816 249.988C423.604 251.667 423.513 252.83 421.031 252.83C416.947 252.83 414.505 252.284 414.505 252.284C414.505 253.69 414.47 257.327 414.435 260.716H419.727C421.127 260.716 421.754 260.377 421.754 260.377C421.688 261.985 421.476 262.906 419.687 262.906C417.907 262.906 414.404 262.714 414.404 262.714V266.27C414.404 268.121 414.505 269.972 414.541 272.056L420.824 271.894C423.058 271.818 424.565 271.581 425.424 271.136C425.464 271.52 425.464 271.818 425.464 272.092C425.464 274.292 424.706 274.499 422.194 274.499L410.072 274.327C410.072 274.327 410.456 273.366 410.456 264.833Z" fill="#00437C"/>
<path d="M394.554 261.712C394.554 258.864 394.493 256.158 394.387 253.958C394.352 253.483 394.316 253.073 394.316 252.729C392.118 252.704 391.294 252.704 390.743 252.704C388.994 252.704 387.482 252.906 386.764 253.002C386.764 253.002 386.658 252.249 386.658 251.636C386.658 250.944 386.795 250.165 387.447 250.165C387.447 250.165 398.987 250.331 402.455 250.331C404.138 250.331 405.614 250.089 406.206 249.988C406.206 249.988 406.342 250.847 406.342 251.707C406.342 252.461 406.064 252.83 405.69 252.83C405.69 252.83 402.419 252.795 398.648 252.764C398.608 255.536 398.507 258.116 398.507 260.787C398.507 265.278 398.507 269.765 399.088 274.322C398.234 274.459 397.516 274.666 396.793 274.666C395.595 274.666 394.554 274.191 394.554 272.334V261.712Z" fill="#00437C"/>
<path d="M363.654 264.833C363.654 262.774 363.522 255.577 363.451 253.928C363.274 250.61 363.103 250.337 363.103 250.337C363.522 250.195 364.139 250.058 364.852 250.058C365.574 250.058 366.297 250.124 366.641 250.635C367.571 252.011 368.845 253.685 370.281 255.405L376.948 263.422C378.702 265.551 380.036 267.266 380.38 267.979L380.522 267.848C380.38 265.137 380.416 257.464 380.244 253.928C380.067 250.61 379.9 250.296 379.9 250.296C379.9 250.296 380.486 249.988 381.169 249.988C382.65 249.988 382.751 250.706 382.751 251.94C382.751 256.088 382.579 260.063 382.579 265.445C382.579 269.284 382.614 273.093 382.893 274.322C382.893 274.322 382.134 274.53 381.204 274.53C380.689 274.53 380.037 274.287 379.587 273.604C378.732 272.264 377.393 270.554 375.811 268.667L369.012 260.544C367.227 258.384 365.918 256.71 365.751 256.052L365.61 256.184C365.61 261.535 365.918 266.679 365.918 272.304C365.918 274.155 365.852 274.636 364.649 274.636C363.926 274.636 363.138 274.287 363.138 274.287C363.138 274.287 363.654 273.366 363.654 264.833Z" fill="#00437C"/>
<path d="M352.462 261.712C352.462 258.865 352.391 256.128 352.29 253.928C352.118 250.6 351.946 250.296 351.946 250.296C352.533 250.119 353.286 249.988 353.837 249.988C355.384 249.988 356.546 250.777 356.546 252.117C356.546 255.096 356.41 257.909 356.41 260.782C356.41 265.278 356.41 269.694 356.991 274.251C356.137 274.388 355.419 274.595 354.691 274.595C353.493 274.595 352.462 274.12 352.462 272.264V261.712Z" fill="#00437C"/>
<path d="M328.805 264.595C330.013 264.595 331.211 264.555 332.349 264.525C331.105 260.888 329.776 257.018 328.674 254.206H328.497C327.021 258.455 325.989 261.803 325.13 264.525C326.227 264.555 327.501 264.595 328.805 264.595ZM318.781 274.155C318.781 274.155 319.742 273.437 321.011 269.871L328.193 249.886C328.193 249.886 331.691 250.023 332.889 254.034C334.199 258.349 337.257 267.575 338.976 271.378C339.936 273.533 340.138 273.948 340.553 274.155V274.322C340.553 274.322 339.249 274.666 338.04 274.666C336.534 274.666 335.296 274.084 334.886 272.607C334.436 271.065 333.789 268.839 332.965 266.34C331.899 266.305 330.696 266.27 329.523 266.27C327.779 266.27 326.03 266.341 324.579 266.401C322.517 272.643 322.694 274.666 320.015 274.666C319.428 274.666 318.781 274.322 318.781 274.322V274.155Z" fill="#00437C"/>
<path d="M310.986 261.712C310.986 258.865 310.916 256.128 310.815 253.928C310.638 250.6 310.466 250.296 310.466 250.296C311.052 250.119 311.81 249.987 312.361 249.987C313.908 249.987 315.071 250.777 315.071 252.117C315.071 255.096 314.934 257.909 314.934 260.782C314.934 265.278 314.934 269.694 315.521 274.251C314.661 274.388 313.944 274.595 313.216 274.595C312.013 274.595 310.986 274.12 310.986 272.263V261.712Z" fill="#00437C"/>
<path d="M295.432 261.915C297.874 261.915 299.865 260.68 299.865 257.221C299.865 254.474 298.258 252.147 293.683 252.147H292.617C292.516 255.026 292.48 259.006 292.48 261.54C293.476 261.879 294.472 261.915 295.432 261.915ZM288.532 264.833C288.532 261.985 288.462 256.128 288.361 253.928C288.184 250.605 288.012 250.261 288.012 250.261C288.012 250.261 289.356 250.332 290.762 250.332H295.023C300.962 250.332 303.919 253.073 303.919 256.502C303.919 262.572 298.354 263.397 298.354 263.397V263.564C298.354 263.564 304.162 272.198 307.043 273.842V274.084C307.043 274.084 305.021 274.535 304.021 274.535C298.592 274.535 295.958 264.176 292.965 263.321L292.48 263.184C292.48 264.009 292.652 268.566 292.652 272.334C292.652 274.191 291.621 274.666 290.418 274.666C289.7 274.666 288.947 274.459 288.087 274.322C288.087 274.322 288.532 273.361 288.532 264.833Z" fill="#00437C"/>
<path d="M268.581 264.833C268.581 262.774 268.445 255.582 268.379 253.933C268.202 250.61 268.035 250.337 268.035 250.337H274.344C279.606 250.337 281.941 249.988 281.941 249.988C281.734 251.667 281.633 252.83 279.156 252.83C275.072 252.83 272.635 252.284 272.635 252.284C272.635 253.69 272.6 257.327 272.564 260.716H277.857C279.257 260.716 279.884 260.377 279.884 260.377C279.813 261.985 279.606 262.906 277.817 262.906C276.032 262.906 272.524 262.714 272.524 262.714V266.27C272.524 268.121 272.635 269.972 272.666 272.056L278.954 271.894C281.183 271.818 282.694 271.581 283.554 271.136C283.589 271.52 283.589 271.818 283.589 272.091C283.589 274.292 282.836 274.499 280.324 274.499L268.202 274.327C268.202 274.327 268.581 273.366 268.581 264.833Z" fill="#00437C"/>
<path d="M250.868 264.833C250.868 262.774 250.727 255.577 250.661 253.933C250.484 250.61 250.317 250.336 250.317 250.336H256.631C261.888 250.336 264.223 249.987 264.223 249.987C264.021 251.662 263.915 252.83 261.443 252.83C257.526 252.83 254.917 252.284 254.917 252.284C254.917 253.73 254.882 257.463 254.847 260.923H260.139C261.549 260.923 262.161 260.584 262.161 260.584C262.095 262.193 261.888 263.118 260.099 263.118C258.314 263.118 254.816 262.906 254.816 262.906V266.133C254.816 268.055 254.953 270.144 254.953 272.334C254.953 274.191 253.922 274.666 252.724 274.666C251.996 274.666 251.278 274.459 250.424 274.322C250.424 274.322 250.868 273.366 250.868 264.833Z" fill="#00437C"/>
<path d="M691.448 196.862C691.448 198.845 689.674 199.502 687.612 199.502H686.955V194.136C687.4 194.136 687.763 193.994 688.355 193.994C690.64 193.994 691.448 194.94 691.448 196.862ZM686.955 205.233V201.045C687.4 201.045 687.839 200.969 688.208 201.045C689.821 202.664 690.933 206.331 691.964 207.955C692.328 207.955 694.396 207.874 695.492 207.874C695.639 207.439 695.639 206.999 695.639 206.771C692.404 206.7 693.137 202.37 690.64 200.448C692.702 199.937 694.097 198.622 694.097 196.64C694.097 194.439 692.626 192.806 689.386 192.806H683.057C683.057 193.256 683.057 193.772 683.133 194.06C684.458 194.212 684.675 194.439 684.675 195.678V205.233C684.675 206.26 684.306 206.7 683.204 206.852C683.057 207.135 683.057 207.585 683.057 207.955C683.568 207.955 684.897 207.874 685.777 207.874C686.808 207.874 687.693 207.955 688.506 207.955C688.506 207.585 688.506 207.135 688.355 206.852C687.248 206.852 686.955 206.331 686.955 205.233ZM689.169 211.844C695.639 211.844 700.573 206.771 700.573 200.529C700.573 194.212 695.639 189.143 689.169 189.143C682.906 189.143 677.826 194.212 677.826 200.529C677.826 206.771 682.906 211.844 689.169 211.844ZM689.169 186.721C696.898 186.721 702.999 192.957 702.999 200.529C702.999 208.167 696.898 214.267 689.169 214.267C681.662 214.267 675.404 208.167 675.404 200.529C675.404 192.957 681.662 186.721 689.169 186.721Z" fill="#00437C"/>
<path d="M641.345 98.4411C644.979 98.7699 651.561 98.7699 656.504 98.7699C661.448 98.7699 667.044 98.7699 670.663 98.4411C670.663 100.737 670.501 102.548 670.011 104.85C663.915 105.507 662.762 106.661 657.161 115.532L631.462 157.11V192.947C631.462 201.495 634.43 202.977 643.326 203.625C644.317 205.597 644.479 208.076 644.479 209.872C640.359 209.71 634.096 209.381 624.052 209.381C614.008 209.381 605.778 209.548 602.149 209.71C602.149 207.408 602.649 204.935 603.135 203.463C611.536 202.471 615.489 201.161 615.489 193.438V157.11L587.333 113.393C582.718 106.327 582.222 105.507 576.131 105.179C575.312 102.71 575.141 100.737 575.141 98.4411C579.761 98.603 586.014 98.7699 592.262 98.7699C598.53 98.7699 610.06 98.603 613.512 98.4411C613.512 100.904 613.346 102.548 612.688 104.85C604.788 105.507 602.973 107.485 606.926 113.722L628.505 147.743L649.417 114.379C653.699 107.642 651.065 105.34 642.497 105.179C641.845 102.877 641.345 100.904 641.345 98.4411Z" fill="#00437C"/>
<path d="M541.373 136.736C544.179 135.917 546.322 135.583 549.284 135.583C549.123 138.871 548.961 147.91 548.961 153.838C548.961 159.746 549.123 168.951 549.284 172.558C546.322 172.558 544.179 172.396 541.707 171.748C541.222 163.033 539.898 156.948 529.682 156.948H516.185V194.915C516.185 200.676 519.309 202.315 523.262 202.315H531.987C552.585 202.315 556.043 195.249 560.81 181.769C564.11 182.755 566.082 183.741 568.068 185.709C565.586 193.276 563.944 202.148 562.953 209.71C549.947 209.548 536.769 209.386 524.581 209.386C512.389 209.386 499.711 209.548 489.01 209.71C489.01 207.251 489.177 204.621 490.162 202.81C498.397 202.81 500.707 200.676 500.707 193.772V116.848C500.707 106.165 498.397 105.502 490.658 105.502C489.839 103.535 489.667 100.904 489.667 98.4462C500.707 98.603 513.385 98.7699 524.91 98.7699C536.44 98.7699 548.627 98.603 558.676 98.4462C559.334 105.836 560.486 117.182 562.134 124.248C560.324 125.725 557.686 126.22 554.729 126.22C553.9 116.028 548.961 105.012 527.705 105.012H516.185V149.882H530.511C539.069 149.882 541.373 144.956 541.373 136.736Z" fill="#00437C"/>
<path d="M403.208 98.4412C409.3 98.603 415.224 98.77 422.306 98.77C429.393 98.77 434.498 98.603 440.261 98.2742C440.261 100.904 440.094 103.373 439.437 105.507C430.54 105.836 429.716 106.979 429.716 118.815V193.438C429.716 199.851 430.879 202.315 438.78 202.315H445.533C463.645 202.315 466.935 196.073 471.879 181.607C475.175 182.593 476.985 183.574 478.961 185.547C476.656 193.104 475.175 200.671 474.518 209.71C461.507 209.548 451.129 209.381 438.289 209.381C425.435 209.381 412.924 209.548 402.223 209.71C402.223 207.241 402.546 204.621 403.537 202.644C411.605 202.472 413.91 200.671 413.91 193.766V116.848C413.91 107.642 412.095 105.836 404.361 105.836C403.537 103.535 403.208 100.904 403.208 98.4412Z" fill="#00437C"/>
<path d="M347.867 98.2692C352.482 98.6081 360.221 98.7649 368.127 98.7649C374.385 98.7649 381.462 98.6081 387.063 98.2692C387.063 100.247 386.739 103.206 386.077 105.007C378.182 105.507 375.376 107.313 375.376 112.902V193.438C375.376 200.995 377.843 202.972 386.077 203.62C387.063 205.597 387.235 208.061 387.235 209.872C383.11 209.71 375.376 209.386 368.456 209.386C361.536 209.386 351.82 209.548 348.201 209.71C348.201 207.408 348.696 204.945 349.187 203.463C357.254 202.477 359.893 200.995 359.893 192.785V114.212C359.893 108.133 358.245 105.669 348.535 105.179C348.029 102.877 347.867 100.738 347.867 98.2692Z" fill="#00437C"/>
<path d="M310.658 126.347C313.923 125.573 316.996 125.194 319.878 125.194C319.685 129.033 319.493 138.613 319.493 144.556C319.493 152.427 319.685 164.126 319.878 168.339C316.996 168.339 313.923 168.152 311.042 167.571C310.465 154.723 309.313 150.317 294.901 150.317H281.839V184.642C281.839 200.362 283.568 200.752 296.817 201.323C298.359 203.251 298.94 206.311 298.94 209.76C289.326 209.573 284.337 209.381 274.54 209.381C264.157 209.381 258.011 209.573 250.322 209.76C250.322 206.7 250.711 204.014 251.859 201.516C262.045 200.939 263.197 200.175 263.197 182.148V101.42C263.197 89.1444 261.276 87.9962 251.667 87.9962C250.904 85.3053 250.711 82.6194 250.711 79.9437C262.626 80.1258 278.19 80.3179 289.134 80.3179C307.968 80.3179 322.38 80.1258 332.565 79.9437C332.95 89.5288 333.713 100.647 335.639 108.891C333.521 110.813 329.684 111.774 326.798 111.774C325.64 98.3451 318.538 87.6067 296.625 87.6067H281.839V141.88H295.28C309.313 141.88 310.273 137.854 310.658 126.347Z" fill="#00437C"/>
<path d="M98.7105 -9.59277e-06H100.358C105.014 2.85783 99.4384 14.7444 99.0442 18.8971C98.2859 13.4191 98.0686 7.33932 96.7139 2.53916C97.4013 1.71469 98.1241 0.940801 98.7105 -9.59277e-06Z" fill="#00437C"/>
<path d="M92.7308 5.09352C94.1512 8.5988 93.9238 13.9503 94.3939 18.5279C92.7308 14.2791 88.4898 10.9306 89.0661 5.43744C89.2632 3.57605 91.8714 4.54725 92.7308 5.09352Z" fill="#00437C"/>
<path d="M104.691 18.8921C104.641 14.8254 104.56 7.6074 106.698 4.72933C108.462 4.29434 109.63 4.32463 110.353 5.81172C109.837 11.6741 106.005 13.8997 104.691 18.8921Z" fill="#00437C"/>
<path d="M90.3904 21.411C87.5294 17.405 82.6615 15.6093 81.7617 9.41819C87.7366 6.03431 88.6263 16.712 90.3904 21.411Z" fill="#00437C"/>
<path d="M116.64 10.5261C115.614 15.7005 111.843 17.8755 109.675 21.7854C109.922 17.8553 111.909 6.04457 116.64 10.5261Z" fill="#00437C"/>
<path d="M122.636 14.8912C123.167 15.1441 122.55 16.6514 123.632 16.3428C121.661 20.4905 117.379 22.1041 114.331 25.0479C115.691 21.573 117.167 15.0884 122.636 14.8912Z" fill="#00437C"/>
<path d="M83.7643 29.4092C81.2791 29.8341 79.1513 27.7362 76.1088 26.5069C73.5312 25.4577 67.9488 24.9442 68.4591 21.4175C68.6551 20.1338 70.4472 19.2556 71.4555 19.2574C75.9485 19.2248 80.188 27.5304 83.7643 29.4092Z" fill="#00437C"/>
<path d="M129.946 21.4111C127.691 26.8384 120.978 27.3443 115.994 29.7772C120.003 26.8081 123.844 17.4758 129.946 21.4111Z" fill="#00437C"/>
<path d="M99.0393 24.6937C97.3004 34.8656 104.16 38.9627 101.713 47.5717C99.1808 41.7953 88.5959 29.2157 99.0393 24.6937Z" fill="#00437C"/>
<path d="M105.02 25.4271C105.404 25.3563 105.611 25.5081 105.682 25.7863C103.109 35.3057 114.29 44.2636 105.02 49.3824C105.48 44.901 104.893 40.0047 103.347 35.943C102.507 35.9835 102.209 36.6006 101.709 37.0406C98.878 32.5945 102.154 27.1115 105.02 25.4271Z" fill="#00437C"/>
<path d="M80.7558 34.1407C77.6636 34.5422 74.4652 33.2003 70.4606 32.3134C67.708 31.7179 61.8084 31.792 61.484 28.6837C61.2022 26.1865 63.5413 25.6243 65.4582 25.794C70.08 26.1515 76.1774 32.9231 80.7558 34.1407Z" fill="#00437C"/>
<path d="M136.597 27.9563C133.155 32.6705 124.658 31.8662 118.991 34.1373C120.649 32.9436 123.126 31.6437 125.608 30.1465C129.126 28.0473 133.059 23.8137 136.597 27.9563Z" fill="#00437C"/>
<path d="M103.68 334.782C109.023 333.325 107.992 321.919 100.354 324.231C93.8027 326.249 97.1086 336.583 103.68 334.782ZM100.035 321.327C100.693 320.655 103.346 320.842 104.014 321.327V316.982H99.7069C99.9293 318.308 99.2722 320.584 100.035 321.327ZM126.624 311.181C127.59 312.182 129.329 312.344 130.269 313.33V307.544C129.167 306.578 128.055 305.627 126.624 305.005V311.181ZM73.4518 307.17C73.659 309.233 73.0169 312.248 73.7853 313.705C74.4879 312.425 76.2269 312.263 77.1064 311.181C76.8992 309.092 77.5311 306.097 76.7678 304.62C75.6962 305.505 74.3869 306.143 73.4518 307.17ZM65.8086 292.284C62.8313 296.416 60.0815 302.122 58.8177 305.713C66.8146 300.26 70.4592 288.176 74.4425 279.578C68.6546 281.07 69.4987 287.185 65.8086 292.284ZM132.614 287.215C136.532 294.347 140.212 303.447 146.237 306.436C144.372 301.504 140.879 296.016 137.932 290.488C135.379 285.759 134.348 280.265 129.293 279.213C130.36 281.768 131.199 284.641 132.614 287.215ZM27.5836 198.248C25.5263 198.744 15.9472 206.725 15.6186 208.061C15.2597 209.629 16.7813 213.64 17.6103 215.688C18.596 218.025 19.789 220.767 20.6129 222.572C33.0227 250.154 57.9988 267.291 87.4032 274.519C83.4806 281.469 79.8614 288.768 76.4392 296.29H86.0737V303.917H117C116.954 301.09 117 298.353 117.652 296.29C120.761 296.032 124.724 296.755 127.291 295.935C123.637 288.632 119.745 281.661 116.307 274.135C151.606 265.137 177.011 245.314 187.101 208.774C182.466 207.024 178.907 199.528 173.16 198.248C165.825 196.64 157.889 199.138 149.882 198.617C142.931 219.856 128.11 236.057 104.014 237.823C76.4543 239.836 56.5936 222.102 50.1941 198.617C43.2891 199.184 34.4431 196.629 27.5836 198.248ZM43.5418 193.17C37.8399 193.17 29.2214 191.794 24.2727 193.17C20.9718 194.07 18.7931 197.778 15.9472 200.438C13.2631 202.962 9.32026 204.955 8.97653 207.686C8.60752 210.645 10.9377 216.199 12.2975 219.31C16.3869 228.597 21.0526 238.167 27.2499 245.82C40.1399 261.662 58.6106 271.884 78.7644 278.126C74.7306 286.29 70.3177 294.059 66.4709 302.455C70.6766 302.678 75.7567 301.985 79.4265 302.825V310.457H124.319V302.455H137.593C134.03 293.386 128.899 286.052 125.29 277.023C161.018 267.898 184.119 244.965 193.743 207.337C191.332 205.35 188.456 202.8 185.114 200.064C182.435 197.894 178.619 193.827 175.813 193.17C170.319 191.87 161.134 193.068 155.538 193.17C153.87 193.2 150.286 192.123 150.559 195.355C157.702 197.424 166.932 193.827 174.479 195.689C177.542 196.447 179.979 199.806 182.435 201.895C185.114 204.105 189.436 206.149 189.76 209.143C190.068 211.804 187.804 217.13 186.459 220.382C184.872 224.196 183.295 227.924 181.798 230.559C168.828 253.66 145.888 268.799 120.311 276.31C124.026 283.644 128.206 290.447 131.28 298.46C127.029 298.176 123.783 298.97 119.648 298.834V306.436C107.779 306.214 95.0412 306.937 83.7587 306.097V298.834C79.735 298.849 75.7113 298.9 72.1374 298.46C75.2361 290.493 80.1091 284.408 83.0813 276.31C48.0155 265.971 22.2001 245.541 12.2975 207.686C14.1981 205.587 16.5842 203.751 19.2684 201.51C21.5481 199.639 24.2727 196.351 26.9366 195.689C31.6781 194.556 39.4677 195.79 44.2143 195.689C45.3819 195.689 48.7029 196.857 48.8647 194.252C47.879 192.229 45.2302 193.17 43.5418 193.17ZM188.097 195.689C185.473 193.468 181.263 188.85 178.134 188.081C169.778 186.058 160.356 189.28 151.216 188.44V189.538C158.465 191.207 168.282 189.791 176.152 190.251C181.111 193.792 186.671 199.027 191.443 202.967C192.767 204.07 195.083 207.054 196.741 204.07C195.047 200.924 191.58 198.668 188.097 195.689ZM42.5309 188.081H21.6036C16.1039 193.316 8.78443 198.364 4.98821 204.07C8.93608 205.855 11.5342 201.04 14.6329 198.248C17.3676 195.749 21.4267 191 24.5961 190.251C29.5803 189.073 37.84 190.251 42.8848 190.251C44.4973 190.251 47.242 191.192 48.1873 189.169C47.2724 187.156 44.3659 188.081 42.5309 188.081ZM27.9222 152.138C26.4007 154.278 24.7528 156.938 22.9381 159.422C21.3003 161.597 18.7376 164.171 18.9398 166.296H38.8812C38.6538 156.615 39.3311 145.967 38.5577 136.893C35.2771 142.26 31.5264 147.131 27.9222 152.138ZM161.169 166.296H182.132C175.97 156.923 167.978 146.422 161.169 136.519V166.296ZM77.7687 140.14C66.4861 145.972 58.4792 155.254 53.8236 167.383C46.8984 185.547 52.4941 204.12 59.1514 213.862C67.5577 226.154 82.9398 235.734 100.035 235.658C120.654 235.542 138.195 221.571 145.575 204.424C152.531 188.182 147.294 165.911 139.58 155.421C132.321 145.512 117.556 133.504 96.7195 135.067C89.2989 135.628 83.233 137.333 77.7687 140.14ZM48.8647 147.424C49.077 156.857 48.4199 167.277 49.2034 176.098C53.3434 154.141 66.3394 141.84 84.0922 134.703C70.0447 136.443 59.2222 141.668 48.8647 147.424ZM149.882 171.389C150.129 172.214 151.464 181.617 151.216 176.463V147.424C140.358 141.966 128.768 135.401 114.674 134.703C131.684 140.14 144.362 152.942 149.882 171.389ZM32.234 87.8747V101.663H18.6112V129.635C25.7133 130.575 34.8122 129.351 41.884 130.348C41.6514 147.181 42.3186 164.971 41.5301 181.172H32.234V173.2C33.9577 173.509 37.0211 172.35 37.2183 174.278C37.6884 176.857 33.7203 174.556 34.9082 177.904C35.0497 179.462 37.6883 178.273 38.8812 178.643V169.214H28.9181V185.547H46.2058V146.321C59.3283 137.242 78.35 130.712 99.7069 130.712C121.17 130.712 140.404 137.05 153.552 146.321V185.547H171.168V169.214H161.169V178.289C162.529 177.818 165.709 179.346 165.512 177.201C166.3 174.379 162.029 177.11 163.166 173.918C163.404 172.558 167.089 173.139 167.837 173.569C167.619 175.977 168.272 179.346 167.493 181.172C164.501 180.975 160.669 181.642 158.187 180.828C158.42 163.878 157.752 145.967 158.516 129.635H180.469V101.314H166.502V87.8747H32.234ZM25.6021 80.9704C25.1775 81.1373 24.9145 81.4408 24.9348 82.0579V94.3997H11.3017V136.893C17.767 136.847 24.1159 136.923 29.9037 137.626C25.602 143.428 21.634 149.639 17.302 155.421C14.0921 159.452 11.0086 165.067 7.97567 169.214C7.04051 170.484 4.8264 171.556 5.63519 173.2H21.265V185.547H25.9407V169.214C21.5328 169.295 17.868 168.557 13.3035 168.835C20.3854 158.355 28.4531 146.994 35.5653 136.893C36.4752 135.598 38.1837 134.258 37.8905 132.528C30.566 132.285 22.3821 133.008 15.6186 132.174C15.8411 121.152 15.194 109.174 15.9472 98.7699H29.5802C29.8077 94.3997 29.1455 89.0735 29.9037 85.3305C76.2268 85.5632 123.419 84.855 169.166 85.6997V98.7699C173.817 99.0077 179.357 98.2945 183.462 99.129C183.244 110.029 183.896 121.881 183.128 132.174C176.804 133.008 169.075 132.3 162.175 132.528C169.166 144.288 179.807 157.095 186.782 168.835C182.071 168.557 178.401 169.376 173.817 169.214V185.547H178.462V173.2C183.406 172.532 189.31 172.947 194.739 172.846C188.092 161.096 177.426 148.663 170.496 137.242C176.829 137.368 182.309 136.605 188.774 136.893C188.375 121.693 189.699 109.023 188.774 94.3997H173.473V80.9704H25.6021ZM103.351 338.044H100.698C96.6082 336.264 93.9493 334.559 93.7269 330.037C93.4539 324.387 98.1045 323.669 96.7195 316.982C88.2727 316.755 78.9868 317.458 71.1315 316.633V308.985C65.6773 308.52 59.4041 308.955 54.1774 308.272C58.929 298.783 64.1053 289.83 68.4626 279.947C44.0272 271.859 24.1159 255.283 12.2975 232.37C8.24348 224.51 3.75985 213.513 3.33018 202.618C8.03124 197.095 13.8343 192.795 18.9398 187.712V175.744H-0.000976562C7.93521 163.342 16.7509 151.926 24.9348 139.801C19.7181 139.554 13.6321 140.262 8.97653 139.427C8.46598 124.248 8.39016 106.666 8.97653 91.4812H22.2861V78.7904C44.659 78.0569 68.1744 78.583 91.0629 78.4312C92.1447 70.8036 87.5397 67.5461 88.0654 61.7242C86.1294 60.1866 83.8547 55.3105 87.0848 53.3834C80.6752 46.302 86.0536 31.4565 92.4025 29.7822C90.4716 39.0791 99.9344 42.7664 97.048 51.9267C95.5619 46.1604 91.4623 43.2773 88.394 39.2257C87.1303 44.1422 85.9272 55.4319 92.0538 54.0966C91.9982 51.7446 89.5313 50.1058 90.7394 47.5717C92.8979 47.9561 92.8473 50.819 93.7269 52.2909C94.6772 53.869 96.6891 54.5164 96.7195 56.6409C96.492 57.7334 93.7017 56.0187 94.3942 58.1027C94.5813 60.4496 98.0134 59.2205 99.0396 60.6367C98.0286 62.918 92.7513 60.5457 91.3915 62.4678C90.5069 63.5755 91.063 66.2007 92.7362 65.7202C94.7683 65.5887 91.336 62.5993 93.4034 62.4678C96.3807 61.4764 95.5618 64.663 96.3807 66.0995C97.7101 66.9392 99.8535 66.8937 100.035 69.0029C98.332 69.7717 95.3142 69.1546 93.0597 69.3569C93.5601 72.2097 92.4834 77.9558 95.0412 78.4312C98.5139 76.1905 92.7109 73.0444 94.7126 71.1728C99.4845 69.8274 96.2189 77.2426 98.711 78.4312H100.035C101.992 75.3053 97.8365 73.8385 99.0396 71.5421C102.442 69.6858 101.683 75.3711 101.714 78.4312H106.349C106.349 75.5228 106.223 72.498 106.698 70.0752C106.637 68.4414 103.887 69.7465 104.347 67.531C105.454 65.4521 108.705 65.7505 108.336 62.0833C106.678 60.7682 101.714 63.0596 101.041 60.6367C103.781 58.1886 111.636 61.35 111.672 55.9327C107.047 55.4219 101.183 58.6742 97.7101 55.9327C103.66 54.7036 109.104 54.3191 110.004 48.2949C111.702 50.3536 108.032 53.2873 110.004 54.4709C118.799 47.2934 103.988 37.0963 109.68 27.9613C109.877 34.0614 115.134 38.0877 115.65 43.9399C116.044 48.3354 113.36 52.0734 114.331 57.3692C109.827 61.6433 108.578 69.5138 108.336 78.4312H176.152V91.4812C181.702 91.2536 186.221 92.1084 191.762 91.8605C191.504 107.895 192.151 124.845 191.762 139.801C186.07 139.629 181.278 140.439 175.48 140.14C183.295 152.093 192.965 163.908 199.743 175.744H181.126V186.994C183.866 190.206 186.975 192.659 190.751 195.689C193.698 198.071 199.187 200.949 199.743 205.147C200.481 210.772 195.79 219.467 194.425 223.306C184.199 252.056 161.624 270.235 135.92 279.947C140.5 289.947 145.747 299.249 150.559 308.985C144.69 309.228 137.932 308.52 132.614 309.36V316.982H106.349C104.671 322.01 109.463 324.074 110.004 327.518C110.949 333.593 107.507 335.9 103.351 338.044Z" fill="#00437C"/>
<path d="M79.4218 39.9339C72.1529 39.0285 59.5711 40.8292 54.1776 36.6765C53.7631 34.9466 55.3858 32.9234 56.4978 33.0397C62.9074 33.7832 73.174 38.3254 79.4218 39.9339Z" fill="#00437C"/>
<path d="M77.1058 45.7449C72.4642 46.5237 66.6433 46.7551 61.1484 47.1951C55.977 47.6261 49.8248 49.3335 46.5409 46.1102C46.0259 44.8973 46.9948 42.6296 48.187 42.1348C58.2507 42.8745 67.4814 44.5397 77.1058 45.7449Z" fill="#00437C"/>
<path d="M120.643 46.11C128.402 45.068 139.3 43.2976 146.559 42.8525C148.753 42.7109 152.397 41.9623 151.543 46.11C150.704 50.1059 140.958 47.4958 136.924 47.1873C130.56 46.7422 126.046 46.5248 120.643 46.11Z" fill="#00437C"/>
<path d="M77.7758 52.2881C68.116 54.2819 57.3895 56.5955 46.8717 58.8233C43.5784 59.5136 38.1195 60.3125 37.8871 57.0099C37.7052 54.3938 40.9908 53.6382 42.8792 53.379C52.8148 52.0399 67.8207 53.6346 77.7758 52.2881Z" fill="#00437C"/>
<path d="M120.32 52.6449C120.32 52.2959 120.709 52.3616 120.988 52.2858C129.641 52.7966 141.116 52.9585 150.24 53.3783C153.743 53.525 158.641 52.2706 160.183 55.9226C159.774 60.9655 154.451 59.3318 151.549 58.8209C141.601 57.0809 130.182 54.1117 120.32 52.6449Z" fill="#00437C"/>
<path d="M120.641 58.4519C128.817 59.3917 137.508 61.7962 146.238 63.9137C154.697 65.9697 163.943 66.5585 170.828 70.8044C170.65 77.967 162.427 73.6413 159.525 72.6097C146.863 68.0872 133.365 62.4064 120.641 58.4519Z" fill="#00437C"/>
<path d="M105.359 71.8878C106.032 72.9859 105.537 75.3287 105.683 76.9802L104.693 76.9832C103.663 76.0474 103.592 74.0589 103.359 72.2532C103.739 71.8439 104.539 71.8467 105.359 71.8878Z" fill="#00437C"/>
<path d="M41.1968 91.1525C39.1951 99.3214 36.8092 107.156 34.9035 115.457C36.5615 115.578 37.2187 114.617 38.8818 114.744V118.745C47.8441 125.431 43.4969 99.4883 44.5433 91.1525H47.844C46.55 103.044 51.7869 122.058 41.8793 124.536C39.4125 123.125 35.7376 123.014 35.217 119.458C33.6904 120.171 31.2337 119.933 29.9043 120.915C31.1882 111.178 35.0552 101.112 37.2187 91.1525H41.1968Z" fill="#00437C"/>
<path d="M53.1769 91.1473C56.5081 94.607 57.2158 100.985 60.1527 104.921C62.1544 99.124 58.0852 96.7922 58.4947 91.4812C59.2125 90.8287 60.9311 91.2535 62.1544 91.1473C62.5639 93.2262 62.5285 95.8362 63.8074 96.9591V114.01C62.6852 114.243 62.1139 115.042 60.4913 114.743C58.1357 110.434 56.4221 105.396 54.1727 100.935C53.3942 103.489 54.0464 107.606 53.829 110.748C54.1272 111.532 55.2949 111.329 55.8256 111.825V116.559C54.6074 117.278 53.5005 118.127 51.8324 118.355C52.3783 115.259 51.0741 114.142 50.1945 112.543C50.4018 105.533 49.7447 97.5458 50.5231 91.1473H53.1769Z" fill="#00437C"/>
<path d="M75.4537 91.1524C76.495 96.1599 72.9362 106.231 78.1125 106.757C79.1032 102.371 77.7992 95.5125 78.7647 91.1524H82.0857C82.394 97.6874 83.9611 108.664 79.1033 110.748C75.2565 111.329 73.6895 109.397 72.1377 107.47V91.1524H75.4537Z" fill="#00437C"/>
<path d="M98.3723 100.935H100.354V95.1433C97.1439 94.2783 98.7514 98.689 98.3723 100.935ZM104.019 92.9329C104.651 100.024 101.976 104.243 104.691 108.901H101.041C100.435 107.278 100.308 105.123 99.358 103.858C97.513 103.858 98.7211 107.257 98.3723 108.901H94.7126C94.9805 102.72 94.2121 97.6269 94.3891 91.4762C96.6739 91.5925 102.558 90.7781 104.019 92.9329Z" fill="#00437C"/>
<path d="M115.988 96.5747C115.437 97.1918 114.042 96.8782 113.006 96.9592C111.762 96.7214 112.495 94.3492 110.352 95.1483C109.609 95.0775 110.18 96.4281 110.003 96.9592C112.46 99.9536 117.697 99.9131 115.988 107.465C115.088 108.067 114.517 109.003 113.648 109.64C111.858 109.564 110.438 109.078 108.335 109.286C107.708 107.419 106.055 106.701 106.338 103.853C107.385 102.913 108.719 103.944 110.003 103.853V106.387C111.156 106.681 111.277 105.841 112.318 106.033C113.006 101.066 108.638 101.577 106.338 99.8575C106.738 96.9592 105.803 95.5733 106.338 93.6916C107.708 88.9775 117.57 90.1863 115.988 96.5747Z" fill="#00437C"/>
<path d="M121.64 91.1473V110.368C120.164 110.657 119.633 109.898 118.298 110.014V91.1473H121.64Z" fill="#00437C"/>
<path d="M130.613 108.562C131.229 108.026 131.477 107.116 132.615 107.116C131.214 103.307 131.088 98.1226 128.945 95.1484H127.944C128.343 100.141 126.503 107.607 130.613 108.562ZM130.613 91.1474C133.909 96.6153 136.461 102.913 137.255 111.107C134.92 110.095 134.914 111.673 133.924 112.907C129.748 112.538 126.326 111.324 124.314 108.562C124.506 103.11 123.849 96.7113 124.623 91.8606C125.79 90.7023 128.505 91.2688 130.613 91.1474Z" fill="#00437C"/>
<path d="M142.249 104.212H146.232V95.1433H140.252C140.095 99.038 141.425 101.329 142.249 104.212ZM149.882 92.9329C150.655 100.818 149.983 110.247 150.23 118.729C148.648 118.729 148.193 117.561 146.556 117.652V108.193C145.994 107.257 144.357 107.465 142.901 107.465C142.294 109.832 142.653 113.251 141.92 115.457C140.843 114.931 139.655 114.551 138.26 114.369C138.139 112.604 139.423 111.784 139.575 110.368C140.161 105.462 135.713 100.024 135.915 95.4873C135.981 94.3542 136.795 91.6835 137.932 91.1474C140.803 89.7665 147.465 91.0664 149.882 92.9329Z" fill="#00437C"/>
<path d="M156.2 113.282C157.115 115.315 159.188 116.059 158.515 119.812C159.85 120.439 161.078 121.157 162.524 121.638C162.726 119.812 162.069 117.045 162.863 115.821C164.172 115.725 164.515 116.676 165.825 116.559C163.631 109.534 161.796 102.088 159.526 95.1483H156.2V113.282ZM152.217 91.1474C155.184 91.7442 159.036 91.4002 162.524 91.4812C165.511 102.24 168.665 112.847 171.81 123.438C169.565 123.236 168.418 121.845 166.507 121.258C165.992 123.261 166.36 126.19 164.515 126.716C161.275 125.052 158.788 122.553 155.214 121.258C156.048 117.455 153.061 117.773 152.217 115.821V91.1474Z" fill="#00437C"/>
<path d="M69.7817 91.4777C69.5755 98.2866 70.2203 106.023 69.4533 112.215C68.5222 112.62 67.5608 112.991 66.4684 113.28C65.7019 106.747 66.3511 98.6399 66.1301 91.4794L69.7817 91.4777Z" fill="#00437C"/>
<path d="M84.4314 91.4811C88.172 91.0512 90.8157 91.7543 92.4029 93.6966C91.9732 94.774 91.018 95.3607 90.7399 96.5848C89.8098 96.2408 89.3195 95.4719 88.4046 95.1482C87.6564 95.6389 88.2832 97.6672 88.0658 98.7699H92.7315C92.1047 99.5438 92.504 101.43 92.4029 102.751H88.4046C87.6564 103.135 88.2832 105.047 88.0658 106.038C89.7036 106.104 90.5831 105.391 92.4029 105.654V109.286C89.5621 109.119 87.6615 109.928 84.7499 109.645C83.9967 104.293 84.6386 97.4396 84.4314 91.4811Z" fill="#00437C"/>
<path d="M89.4098 117.273V124.536C90.345 125.315 91.0778 126.337 93.0594 126.003C94.0349 123.848 93.9641 118.81 93.4031 116.195C91.9422 116.418 90.2337 116.387 89.4098 117.273ZM95.3897 113.282C97.4015 117.222 96.1428 124.298 95.3897 128.522C92.5994 128.274 90.633 128.931 88.0651 128.891C85.8207 122.75 84.8199 109.797 95.3897 113.282Z" fill="#00437C"/>
<path d="M98.7109 113.282C105.115 113.535 104.271 121.729 108.017 124.895C108.806 122.832 108.118 119.21 108.33 116.559C108.138 115.669 106.298 116.6 106.02 115.821V113.282H110.666V128.517C108.927 128.75 108.148 127.88 106.344 128.168C104.847 125.229 103.564 122.012 101.708 119.463C99.7724 123.494 103.837 124.142 103.023 128.168H100.359C100.844 125.73 99.3276 125.426 98.7109 124.192V113.282Z" fill="#00437C"/>
<path d="M115.65 125.649C116.555 126.483 117.834 126.898 119.649 126.711C120.862 124.678 120.26 119.913 119.992 117.268C114.558 114.572 115.595 121.213 115.65 125.649ZM120.64 129.625C118.405 129.645 116.616 129.154 114.665 128.881C112.84 127.035 111.182 115.558 114.665 114.01C116.196 113.322 118.309 114.708 120.64 114.738C123.612 116.731 123.556 127.601 120.64 129.625Z" fill="#00437C"/>
<path d="M84.7493 114.374V117.652C82.7576 118.638 82.2268 117.07 80.1038 117.278C78.6328 118.952 79.8005 123.489 79.4264 126.357C79.482 127.166 80.8468 126.519 81.4281 126.711V129.635C78.9715 129.731 77.3943 130.783 74.7809 130.712V127.819C75.1803 127.399 75.9486 127.399 76.7625 127.46V118.001C73.7902 117.278 74.3817 120.484 71.46 119.807V116.2C75.5443 115.214 79.3911 114 84.7493 114.374Z" fill="#00437C"/>
<path d="M124.956 115.457C126.816 115.254 127.883 115.892 129.288 116.2C130.794 118.997 131.81 122.366 132.614 126.003C134.777 124.248 134.99 120.368 136.916 118.36C138.26 118.846 139.817 119.078 140.924 119.817V130.712C140.201 131.987 139.054 132.816 139.575 135.426C138.109 135.477 137.452 134.627 136.597 133.964C136.693 129.872 138.715 127.819 137.932 122.725C136.046 125.897 134.52 129.432 132.614 132.528C130.481 129.048 129.915 123.853 127.938 120.176C125.795 124.845 129.278 126.731 128.939 131.44C127.923 131.243 126.791 131.152 125.947 130.712C124.915 126.402 124.779 121.107 124.956 115.457Z" fill="#00437C"/>
<path d="M69.1445 116.913C68.4571 121.476 70.0393 126.428 69.1445 129.989C68.1133 133.949 61.5572 136.443 59.1511 132.533C59.2522 128.188 59.1257 124.096 58.8174 120.186C60.1923 119.513 61.638 118.881 63.478 118.744C62.8815 122.326 61.7544 127.227 62.8159 131.445C65.0451 131.592 65.778 130.07 66.7991 128.901C67.3754 123.661 66.0914 121.623 65.8134 117.996C66.7131 117.424 67.8151 117.055 69.1445 116.913Z" fill="#00437C"/>
<path d="M53.5101 124.895C52.2565 125.932 50.4872 126.438 48.8595 127.09C49.0668 128.547 48.435 130.934 49.2034 131.799C50.8361 130.934 52.3374 129.898 54.1724 129.26C53.8135 127.94 54.9255 125.052 53.5101 124.895ZM56.816 121.992C57.0485 127.667 56.7099 132.755 56.169 137.621C55.2692 138.173 54.1723 138.567 52.858 138.709C52.4688 135.77 53.7376 134.597 54.1724 132.533C52.6559 132.331 50.1283 134.167 48.8595 135.426C50.7804 137.667 50.5581 142.057 47.1966 142.33C46.7012 137.313 45.7407 132.755 46.2057 126.716C48.8141 124.131 51.9885 122.149 56.816 121.992Z" fill="#00437C"/>
<path d="M145.893 129.26C147.612 130.049 149.144 131.026 151.221 131.445V127.09C149.396 126.402 147.759 125.563 145.893 124.895V129.26ZM153.551 126.003C153.834 132.113 153.375 137.414 152.54 142.331C151.706 141.931 150.928 141.445 150.24 140.869C149.856 138.304 150.721 137.06 150.882 135.067C149.77 133.742 147.809 133.337 146.242 132.528C145.615 134.066 147.632 135.836 146.889 138.714C145.615 138.653 145.373 137.48 143.896 137.621C143.28 133.074 142.208 127.141 143.25 121.997C147.834 122.068 150.529 124.212 153.551 126.003Z" fill="#00437C"/>
<path d="M59.1516 166.665C51.6602 182.937 57.3521 202.841 64.1509 212.411C71.5463 222.815 83.946 230.974 100.041 230.924C124.658 230.843 146.859 209.249 143.897 179.017C142.815 167.732 135.283 156.964 130.269 152.138C121.787 143.939 109.246 138.658 93.4036 140.505C77.9659 142.331 64.5856 154.89 59.1516 166.665ZM95.0465 137.97C116.277 136.063 133.155 147.176 140.925 162.295C147.87 175.851 147.789 195.107 140.247 208.41C131.836 223.23 114.705 234.479 95.0465 232.719C79.2348 231.343 65.9908 221.101 58.823 208.061C54.6426 200.423 51.7311 186.832 53.8289 175.739C54.9258 170.049 57.2105 165.775 59.1516 162.295C65.8695 150.327 77.9205 139.503 95.0465 137.97Z" fill="#00437C"/>
<path d="M34.5793 150.681C36.1009 153.367 34.8118 159.149 35.2212 163.043H25.9404C28.4224 158.491 31.7688 154.89 34.5793 150.681Z" fill="#00437C"/>
<path d="M165.512 150.681C168.211 154.763 172.356 159.169 174.14 163.043H165.512V150.681Z" fill="#00437C"/>
<path d="M20.2637 209.148H29.5747V213.513C28.963 214.151 27.3808 213.751 26.2586 213.867C26.5316 215.476 27.1787 216.735 27.9167 217.858H37.8901C38.6382 217.342 38.0113 215.334 38.2287 214.211C38.0771 213.417 36.5808 214.09 35.8984 213.867V209.148H42.8793C43.4303 212.567 43.4303 218.42 42.8793 221.869C41.3628 222.628 38.6079 222.006 36.5556 222.203C34.9026 229.451 37.7131 234.99 37.5564 241.814C34.2 237.878 31.354 233.336 28.2402 229.097V224.753C29.8527 224.707 29.6656 226.609 30.899 226.938V222.567H26.9311C23.5797 219.315 20.7338 215.532 20.2637 209.148Z" fill="#00437C"/>
<path d="M46.5391 209.143C50.1938 213.609 54.8039 217.049 54.5057 225.85C53.894 227.712 52.7618 224.505 51.8317 224.388V245.096C52.1451 247.059 54.4349 246.851 53.8283 249.826C54.7079 251.282 56.6894 251.54 57.8115 252.724C58.3271 251.571 58.3474 249.876 60.4806 250.534V233.452C58.4081 231.981 57.7003 228.981 58.1552 224.753C60.8647 226.381 63.3012 228.308 65.1361 230.923V255.248C63.1748 256.123 62.2347 258.116 60.8294 259.613C56.3457 258.065 53.6008 254.656 49.1979 253.073C49.6428 249.785 48.4094 248.344 47.1962 246.902C47.6208 233.619 46.6199 221.864 46.5391 209.143Z" fill="#00437C"/>
<path d="M142.895 230.2C142.107 233.179 143.608 236.493 143.573 240.372C144.831 237.701 149.578 235.84 150.554 232.365C151.342 229.527 150.26 225.825 150.225 222.203C148.865 225.102 143.856 226.609 142.895 230.2ZM155.209 209.143V244.363C154.83 245.152 154.198 245.673 153.859 246.508C154.992 250.589 153.703 254.064 150.554 254.52C149.34 249.725 150.604 245.936 150.554 240.716C148.082 241.54 145.691 245.587 143.244 247.625C143.856 251.186 146.024 253.068 145.216 258.156C143.462 258.89 141.97 259.932 140.247 260.686C139.61 258.389 140.353 254.52 138.25 253.796V228.01C142.698 221.627 148.835 217.049 151.868 209.143H155.209Z" fill="#00437C"/>
<path d="M158.516 209.143H163.5C166.563 213.19 168.797 218.132 171.487 222.568C173.438 220.838 174.322 217.904 174.474 214.212C173.878 213.417 171.871 214.166 171.158 213.508V209.143C174.58 209.169 178.184 208.956 181.116 209.508C180.626 214.839 179.099 220.716 176.461 225.486C176.041 226.295 172.74 231.586 172.149 231.647C170.708 231.804 168.625 227.611 167.837 226.204C166.305 223.549 165.567 221.895 164.167 220.039C163.399 224.156 164.061 229.836 163.838 234.56C167.62 238.627 164.026 245.026 160.528 246.508V239.993C160.083 238.774 158.95 238.313 158.516 237.094V209.143Z" fill="#00437C"/>
<path d="M134.929 242.901C133.383 243.164 132.063 243.655 130.946 244.358C130.178 243.26 130.825 240.605 130.623 238.925C128.752 239.886 126.639 240.615 125.613 242.557V261.075C126.306 261.889 128.5 261.308 129.293 261.075V266.148C125.32 266.548 122.257 267.919 118.309 268.338V263.23C119.371 263.417 119.487 262.587 120.649 262.871V247.63C118.466 249.376 114.042 251.768 114.998 258.156H110.353V252.355C114.29 247.337 118.536 242.653 122.297 237.459C125.689 236.902 131.644 229.669 134.262 233.103C135.703 234.97 134.55 238.956 134.929 242.901Z" fill="#00437C"/>
<path d="M85.4112 248.713C84.385 249.522 83.2173 250.185 82.4237 251.252C78.8347 248.865 78.8347 242.577 73.7899 241.814C73.6282 249.128 71.2018 262.066 78.764 262.147C79.4919 261.844 79.0421 260.281 79.7548 259.962C81.984 259.719 83.1162 260.685 85.0977 260.69V265.43C82.1608 264.413 83.2527 267.752 81.7666 268.333C77.849 268.45 74.3865 265.349 70.1201 264.691C70.4083 262.572 69.2254 262.041 68.457 261.07V234.565C68.9423 234.358 69.276 233.994 69.4479 233.447C77.5913 235.476 82.0901 241.454 85.4112 248.713Z" fill="#00437C"/>
<path d="M115.321 240.003C115.099 244.864 109.104 243.361 107.026 246.184C107.37 246.791 109.983 246.791 110.342 246.184C110.893 248.839 107.946 250.822 104.347 250.17C104.119 252.127 104.726 253.159 105.019 254.515C105.666 255.026 106.92 254.884 107.673 255.248V257.813C106.622 258.323 104.888 258.116 103.356 258.162C102.209 255.167 100.03 253.604 100.354 250.544C100.799 246.705 105.828 244.125 107.026 241.09C110.089 241.05 112.4 240.21 115.321 240.003Z" fill="#00437C"/>
<path d="M96.0421 252.355C95.9865 248.288 93.4085 247.008 90.7345 245.83C91.9275 248.642 93.7472 250.736 96.0421 252.355ZM99.0397 247.995C99.1105 252.805 98.4382 256.796 95.3951 258.156C92.4279 253.154 88.7732 248.93 85.7402 243.999C89.1017 237.089 95.7844 245.041 99.0397 247.995Z" fill="#00437C"/>
<path d="M96.0423 267.974V278.485C98.959 279.082 104.09 279.082 107.032 278.485V267.974C104.09 267.362 98.959 267.362 96.0423 267.974ZM110.666 262.506C112.132 265.445 111.662 270.614 111.662 275.582C111.662 282.496 112.627 289.901 110.004 293.002V299.183C109.008 299.947 106.86 299.38 105.359 299.552C104.636 293.189 106.536 289.704 106.344 283.928H96.7046C96.0121 285.941 95.9564 290.336 98.0441 290.493V299.183C97.0482 299.947 94.905 299.38 93.4037 299.552C93.7272 295.086 93.4038 291.317 91.0633 289.744C91.1796 280.908 90.7701 271.52 91.3868 263.235C96.6338 261.687 104.363 262.891 110.666 262.506Z" fill="#00437C"/>
<path d="M75.1201 15.235C80.5794 10.0808 83.6174 21.4363 87.08 24.3295C83.0361 22.802 77.5364 19.7216 75.1201 15.235Z" fill="#00437C"/>
<path d="M120.644 39.9288C120.361 39.8782 120.335 40.0856 120.32 40.298C122.701 38.6541 127.342 37.4453 131.952 35.943C134.449 35.1287 143.123 31.0619 143.249 35.943C143.34 39.9288 136.122 38.9576 132.947 39.2257C128.145 39.605 124.956 40.035 120.644 39.9288Z" fill="#00437C"/>
<path d="M81.0945 59.185C82.5503 59.185 81.1451 59.8072 80.4222 59.5593C66.9712 63.9649 52.969 68.411 38.5524 72.9886C36.3434 73.6765 25.1772 78.5374 26.5723 71.5369C27.2345 68.3149 35.7572 68.3402 39.5483 67.5258C53.1106 64.6933 67.3502 61.6888 80.7558 59.185H81.0945Z" fill="#00437C"/>
<path d="M94.7126 222.203C93.919 222.441 92.3166 221.753 92.0588 222.567C92.6755 223.528 94.4952 223.564 94.7126 222.203ZM89.7183 219.659C91.3056 220.802 97.2653 221.035 98.3723 219.31ZM101.709 216.402C97.1592 216.644 91.7251 215.916 87.7368 216.761C90.3098 218.425 99.626 218.834 101.709 216.402ZM86.4276 214.586C91.7049 214.657 101.314 216.341 105.024 213.508C98.5997 213.726 91.2753 213.013 85.4116 213.857C85.9222 213.893 85.6744 214.793 86.4276 214.586ZM84.431 212.026C92.0942 211.212 102.846 213.776 108.331 210.58H83.7636C83.526 211.586 84.431 211.318 84.431 212.026ZM103.351 208.061C103.776 209.664 109.822 209.411 111.005 207.676C108.553 207.889 105.292 207.246 103.351 208.061ZM95.7186 208.405C92.4177 206.816 86.4832 208.106 82.0854 207.676C84.0214 209.872 92.352 208.577 95.7186 208.405ZM64.8078 205.865H94.7126C96.5374 209.705 101.88 208.865 104.019 205.865H133.928C131.664 202.305 129.778 198.288 127.615 194.611H120.316C116.823 195.37 124.375 194.692 124.951 194.99C127.049 196.053 127.023 201.799 128.949 202.613C95.405 204.136 98.6302 205.223 99.0497 204.778C92.7867 197.687 79.8815 204.201 69.7818 202.224C70.9798 200.033 71.7937 197.403 73.1232 195.345C75.13 195.481 76.8031 195.238 78.4358 194.99H81.0896C82.6516 195.238 82.6516 194.368 81.0896 194.611H69.1398C68.9325 194.626 68.7556 194.672 68.791 194.99C68.8769 198.688 66.1422 202.477 64.8078 205.865ZM112.324 193.165C118.253 192.274 125.512 195.127 129.298 192.072C123.849 192.704 116.125 190.757 112.324 193.165ZM96.042 192.79C97.2451 195.309 101.249 195.567 102.371 192.79C101.486 191.743 96.9064 191.561 96.042 192.79ZM85.1032 192.79C79.5277 191.384 70.2468 192.037 64.1506 192.436C69.7413 193.817 78.9464 193.21 85.1032 192.79ZM114.669 189.533C114.629 189.993 114.25 190.044 114.336 190.61H122.979C125.638 190.61 129.682 191.48 130.618 189.533C126.063 188.911 119.204 188.946 114.669 189.533ZM97.3917 189.892C97.9073 190.337 101.355 190.853 101.365 189.533C100.814 189.088 97.3968 188.567 97.3917 189.892ZM61.8103 190.61H83.7636C81.9236 188.061 77.2783 189.164 73.4517 189.164H61.4817C61.3957 189.846 61.8456 189.958 61.8103 190.61ZM116.641 186.614C116.585 187.075 116.14 187.383 117 187.353C121.534 186.705 128.909 188.708 131.618 186.25C126.725 186.493 120.988 185.79 116.641 186.614ZM97.705 186.994C96.8103 187.338 101.39 188.031 101.041 186.614C100.698 186.154 97.5281 185.694 97.705 186.994ZM82.0854 186.994C76.065 185.567 66.3951 186.235 59.8287 186.614C65.8441 188.031 75.5241 187.388 82.0854 186.994ZM118.986 183.716C118.921 184.176 118.465 184.465 119.294 184.454C123.318 183.979 129.045 185.4 131.942 183.716C128.388 183.104 122.55 183.124 118.986 183.716ZM60.4959 184.07C66.0209 184.697 73.8863 184.697 79.4265 184.07C74.6345 182.902 65.2829 182.861 60.4959 184.07ZM120.644 181.167C122.449 181.531 130.248 182.254 132.609 180.823C129.485 180.443 123.227 179.755 120.644 181.167ZM70.7929 180.443H62.1489C61.886 180.529 61.7547 180.772 61.8103 181.167C65.2476 182.016 72.9917 181.318 78.1072 181.531C76.7576 179.589 73.573 180.443 70.7929 180.443ZM100.364 184.454C100.323 182.836 101.582 179.154 100.045 178.284C100.253 180.221 99.6006 183.109 100.364 184.454ZM98.711 184.454V178.284H97.705C97.8415 180.539 97.3613 183.493 98.711 184.454ZM121.64 178.284C124.638 178.648 130.83 179.341 133.282 177.909C130.259 177.53 124.097 176.827 121.64 178.284ZM92.0588 180.089C92.7867 180.044 92.1953 178.552 92.4025 177.909C91.8212 177.955 91.346 177.838 91.0629 177.555C91.169 178.648 91.0175 180.044 92.0588 180.089ZM63.8171 177.555C63.4733 177.555 63.4278 177.838 63.1548 177.909C63.0891 178.37 62.624 178.648 63.4732 178.643H76.7676C74.3564 176.205 67.8812 178.203 63.8171 177.555ZM108.331 177.196C108.437 179.558 105.126 180.944 107.026 182.998C109.245 181.288 111.212 179.341 112.324 176.458C111.49 175.82 109.614 177.1 108.331 177.196ZM122.292 174.996V176.093H128.616C130.643 176.093 133.453 176.963 133.928 174.996C130.83 174.384 125.426 174.429 122.292 174.996ZM91.0629 181.895C90.7495 177.525 88.0654 175.755 84.7494 174.637C86.1597 177.813 88.2372 180.282 91.0629 181.895ZM64.4742 176.093C68.134 175.623 73.5275 177.024 76.1055 175.36C73.4012 174.161 66.3142 173.969 64.4742 176.093ZM122.636 172.841C125.315 173.21 131.138 173.888 133.282 172.462C130.582 172.082 124.769 171.389 122.636 172.841ZM68.791 173.2C70.8028 172.623 75.039 174.444 75.4535 172.103C73.5831 171.41 69.4026 171.298 68.791 173.2ZM100.045 170.302V176.827C101.719 175.395 101.132 171.465 104.352 171.728C106.177 172.047 105.267 175.335 106.02 176.827C107.618 175.532 107.097 171.931 107.678 169.558C104.868 169.508 102.391 169.836 100.045 170.302ZM72.1374 171.01H75.4535C76.0499 168.415 72.4053 170.155 72.1374 171.01ZM132.953 169.558C130.365 169.179 124.663 168.506 122.636 169.933ZM91.0629 176.458C93.9947 175.775 91.892 172.28 94.3891 171.728C96.7194 171.248 97.048 174.601 98.3723 176.827C99.1457 175.36 98.4734 172.35 98.711 170.302C95.4101 170.363 93.4892 168.967 90.3855 168.835C90.7141 171.268 89.6779 175.163 91.0629 176.458ZM122.292 166.665V167.378C124.951 166.933 131.876 168.289 132.276 166.665C130.451 165.446 124.112 165.446 122.292 166.665ZM115.008 165.203C113.026 166.554 110.903 167.732 108.674 168.835V175.739C110.903 175.972 112.248 175.289 113.653 174.637C114.629 172.517 116.519 167.667 115.008 165.203ZM89.41 175.36C89.5313 172.699 89.319 170.363 89.0714 168.102C86.8977 166.832 84.6482 165.669 82.4291 164.475C82.3785 170.707 84.2843 174.788 89.41 175.36ZM122.292 164.475C124.749 165.315 128.616 164.611 131.618 164.839C130.547 162.937 123.879 163.413 122.292 164.475ZM122.292 162.664C123.996 162.421 126.508 163.14 127.615 162.3C126.382 162.214 122.924 161.056 122.292 162.664ZM117.657 163.392H118.986C118.921 162.856 119.108 162.047 118.658 161.926C118.739 162.892 117.359 162.219 117.657 163.392ZM79.4265 163.392C79.9371 163.327 80.6751 163.514 80.761 163.033C80.1696 162.699 80.2151 161.693 79.4265 161.572V163.392ZM89.41 181.895C83.7232 179.027 82.8639 170.894 80.761 164.106C78.3903 164.096 79.5681 167.844 80.761 168.102H79.4265C78.5924 174.227 82.1763 177.449 82.4291 181.167C79.4265 178.132 78.1073 173.311 78.4358 166.665C77.9404 166.604 77.2075 166.792 77.1115 166.296C77.1721 165.153 78.8957 165.83 78.7693 164.475C78.8148 162.856 78.9311 161.162 77.445 161.212C73.9066 176.528 81.4941 185.759 87.0898 193.524C89.8195 193.129 92.4127 192.568 95.7186 192.79C96.0825 187.702 97.604 181.415 96.042 176.458C95.9763 177.004 93.8786 177.919 94.0605 176.458C94.2021 175.638 95.8196 176.458 96.042 175.739C96.2038 173.863 95.6023 172.851 94.0605 172.841C92.7614 176.852 94.3081 183.989 90.3855 185.163C90.3855 184.323 90.9719 184.111 90.7394 182.998C89.41 182.436 88.6922 184.368 88.0654 183.352C88.9146 183.311 89.3645 182.831 89.41 181.895ZM109.68 181.895C110.368 184.601 110.332 182.952 108.017 182.998C107.026 183.514 108.902 184.879 107.35 184.798H106.349C105.854 180.985 104.645 177.985 105.024 173.2C104.125 173.458 104.352 172.467 103.68 172.462C103.063 173.099 102.214 173.514 102.371 174.996C102.507 176.205 104.14 175.739 104.691 176.458C103.564 177.211 103.22 176.928 101.709 176.827C100.773 183.402 102.558 186.983 103.028 192.79C105.763 192.714 107.78 193.428 110.666 193.165C116.277 185.446 125.512 176.432 120.983 161.212C118.754 160.954 119.8 165.841 121.311 166.665C120.68 166.741 120.589 166.24 119.992 166.296C120.23 173.099 119.133 178.435 115.655 181.167C116.671 176.827 119.633 174.637 118.658 168.102C117.839 168.177 117.035 168.177 117 167.378C118.011 167.651 118.208 167.009 118.986 167.009C118.946 165.729 119.224 164.096 117.985 164.106H117C116.09 171.728 114.3 178.364 109.68 181.895ZM99.7067 161.212V169.214C102.573 169.305 104.651 168.557 107.026 168.102C106.86 165.259 106.218 162.942 106.02 160.13C104.049 160.621 101.582 160.6 99.7067 161.212ZM90.7394 167.378C93.3275 167.94 95.6376 168.8 98.711 168.835V161.212C96.4413 160.641 94.4144 159.842 92.0588 159.417C91.8364 162.285 90.8001 164.313 90.7394 167.378ZM111.348 156.498C110.095 157.677 108.927 158.967 107.026 159.417C107.962 161.511 108.199 164.394 108.331 167.378C111.035 166.437 113.299 165.031 115.326 163.392C114.427 160.61 113.684 157.677 111.348 156.498ZM82.4291 163.033C85.0475 164.04 86.8472 165.932 89.7183 166.665C89.6375 163.645 90.7394 161.926 90.7394 159.017C89.2684 157.611 87.6306 156.382 85.7451 155.416C84.6482 157.945 83.6271 160.6 82.4291 163.033ZM113.006 155.76C114.108 157.702 115.301 159.533 115.994 161.926C117.399 161.885 117.904 160.868 118.658 160.13C116.545 158.547 116.014 155.229 113.997 153.585C113.861 154.536 113.006 154.687 113.006 155.76ZM79.7602 160.13C80.1292 161.177 81.125 161.541 82.0854 161.926C81.8124 157.965 85.634 156.68 84.7494 153.236C82.7577 153.711 80.6802 157.232 79.7602 160.13ZM100.045 152.507V159.417C101.516 159.907 103.776 159.144 105.358 158.668C104.393 155.38 104.337 150.11 100.045 152.507ZM92.7311 158.324C94.5559 158.855 96.1431 159.66 98.711 159.417V152.128C97.1187 152.28 95.9762 151.961 95.0461 151.41C94.1615 153.585 93.3579 155.841 92.7311 158.324ZM106.349 158.324C108.199 157.677 109.989 156.933 110.666 155.052C109.392 152.831 106.743 149.432 104.019 151.051M87.4082 154.687C88.5001 155.745 90.1885 157.788 91.7251 157.222C92.4379 154.95 94.0402 152.163 93.7369 149.953C91.1336 149.604 88.5961 152.31 87.4082 154.687ZM106.349 149.604C108.952 149.822 110.848 155.628 113.006 152.867C112.036 151.364 109.326 148.643 106.349 148.132C106.379 149.123 105.798 148.876 106.349 149.604ZM104.352 149.953C104.246 148.724 102.649 147.252 101.709 148.132C103.084 148.193 102.426 150.499 104.352 149.953ZM85.4116 152.507C88.2828 153.038 90.3098 149.665 92.4025 148.132C89.7992 147.844 86.458 149.862 85.4116 152.507ZM100.045 151.051H102.704C102.391 149.184 100.885 148.688 100.045 147.419C99.9242 149.098 99.6259 149.503 100.045 151.051ZM95.7186 150.676C96.8104 150.707 97.3714 151.288 98.711 151.051C98.7514 149.548 98.615 148.248 98.0438 147.419C97.8264 149.103 95.8399 148.876 95.7186 150.676ZM96.042 147.419C95.6023 148.228 93.4893 148.431 94.3891 149.604ZM105.358 148.132C105.409 146.959 103.043 146.569 102.704 147.045C103.624 147.363 104.049 148.228 105.358 148.132ZM119.648 160.484C130.86 160.236 136.087 163.337 135.263 176.827C135.147 178.789 134.591 181.662 133.928 184.07C132.584 189.088 132.018 192.406 129.298 194.611C131.244 199.244 134.591 202.355 136.269 207.332C128.414 208.415 121.407 205.79 115.008 207.332C111.323 208.192 106.693 213.751 103.68 216.402C99.823 219.811 96.3402 223.023 93.0646 225.85C87.9945 220.246 83.5766 213.913 79.4265 207.332H62.4774C64.1304 203.321 66.0817 199.634 67.7852 195.683C63.5542 193.478 58.4335 191.354 58.1656 185.901C57.7259 177.009 69.1652 169.477 76.1055 168.456C76.0803 165.785 76.0397 163.074 76.4441 160.833C76.8384 160.418 77.6119 160.439 78.4358 160.484C81.4031 146.316 102.31 139.731 113.653 151.051C116.277 153.64 117.682 157.09 119.648 160.484Z" fill="#00437C"/>
</g>
<defs>
<clipPath id="clip0_70_206">
<rect width="703" height="340" fill="white"/>
</clipPath>
</defs>
</svg>
